<svg width="76" height="70" viewBox="0 0 76 70" fill="none" xmlns="http://www.w3.org/2000/svg">
<rect width="76" height="70" fill="white"/>
<rect x="13" y="17" width="63" height="53" fill="#00FEFF"/>
<path d="M59.3681 28.5395C60.544 28.5395 61.6624 28.5381 62.7809 28.5395C63.7672 28.541 64.1161 28.8844 64.1233 29.87C64.129 30.6128 64.1391 31.3556 64.119 32.097C64.1003 32.7967 63.7572 33.199 63.0637 33.2033C59.9769 33.2263 56.8886 33.2335 53.8018 33.186C53.4802 33.1817 53.1672 32.7809 52.8456 32.5711C52.6345 32.4332 52.4163 32.1947 52.1995 32.1932C49.0897 32.1659 45.9799 32.1645 42.8701 32.1832C42.6332 32.1846 42.28 32.3369 42.1838 32.5237C41.8952 33.0855 41.4487 33.2277 40.8844 33.2248C39.9038 33.2191 38.9203 33.2536 37.9412 33.2148C37.1429 33.1832 37.3051 33.7248 37.2807 34.1817C37.2534 34.6645 37.3066 35.0122 37.9541 34.9878C39.0768 34.9446 40.2039 34.9921 41.3281 34.9691C41.8378 34.959 42.1708 35.1372 42.4393 35.5826C42.7839 36.153 43.239 36.6573 43.5894 37.2248C43.7545 37.4935 43.8679 37.844 43.8693 38.1573C43.8851 47.3526 43.8851 56.5479 43.8808 65.7432C43.8808 66.6944 43.5779 66.9875 42.6245 66.9889C38.2441 66.9961 33.8651 66.9961 29.4847 66.9918C28.5759 66.9903 28.2557 66.6843 28.2557 65.7906C28.2499 56.5709 28.2471 47.3526 28.2743 38.1328C28.2758 37.7578 28.5601 37.3685 28.7625 37.015C28.998 36.6012 29.3411 36.2449 29.5421 35.8182C29.868 35.13 30.3691 34.9245 31.1027 34.9619C32.1537 35.0151 33.209 34.9475 34.2614 34.9834C35.0137 35.0093 34.8802 34.5036 34.8945 34.0653C34.9089 33.6171 34.9376 33.1846 34.2628 33.2177C33.5464 33.2521 32.8271 33.2248 32.1092 33.222C31.5694 33.2205 31.1458 33.0668 30.8974 32.5108C30.8213 32.3398 30.4954 32.1832 30.2829 32.1817C26.8601 32.1616 23.4373 32.1602 20.016 32.1846C19.792 32.1861 19.5695 32.4274 19.3469 32.5596C18.9823 32.778 18.6219 33.1832 18.2543 33.1889C15.2393 33.2392 12.2242 33.2191 9.20775 33.2133C8.51286 33.2119 8.12808 32.834 8.10654 32.153C8.07926 31.2924 8.07496 30.4274 8.11516 29.5683C8.14818 28.8628 8.51429 28.5496 9.2336 28.541C10.2386 28.528 11.2451 28.518 12.2486 28.5438C12.7454 28.5568 12.9608 28.3729 12.9234 27.8801C12.912 27.7378 12.9105 27.5913 12.9263 27.449C12.9938 26.8643 12.7626 26.6502 12.1568 26.6602C10.1467 26.6904 8.13669 26.6717 6.12523 26.6703C5.86249 26.6703 5.59831 26.6703 5.33557 26.6703C4.1597 26.6674 4.00464 26.5166 4.00321 25.3557C4.00177 24.518 3.99603 23.6789 4.00464 22.8413C4.01326 22.008 4.23723 21.7752 5.0757 21.7724C7.56527 21.7637 10.0534 21.768 12.543 21.768C17.5207 21.768 22.4998 21.7666 27.4775 21.7738C28.5715 21.7752 28.7079 21.9275 28.7094 23.0338C28.7108 23.8959 28.7166 24.758 28.7036 25.62C28.6907 26.4677 28.4868 26.6674 27.6225 26.6689C23.8408 26.6732 20.0591 26.666 16.2788 26.6789C15.9658 26.6804 15.413 26.7407 15.3857 26.8657C15.2809 27.3398 15.3197 27.8542 15.3742 28.347C15.3829 28.4289 15.7303 28.5237 15.9227 28.528C16.7124 28.5496 17.5063 28.4907 18.2888 28.5611C18.6248 28.5913 19.0813 28.7838 19.2306 29.0467C19.479 29.4835 19.7676 29.5798 20.2098 29.5783C23.512 29.5697 26.8156 29.5697 30.1178 29.5798C30.5328 29.5812 30.7998 29.4993 31.0252 29.074C31.1674 28.8068 31.6268 28.564 31.947 28.5596C35.0094 28.5223 38.0733 28.5223 41.1371 28.5625C41.4544 28.5668 41.8995 28.8211 42.0531 29.0913C42.2915 29.5079 42.5729 29.5798 42.9806 29.5783C46.043 29.5668 49.1069 29.5754 52.1693 29.5438C52.4062 29.541 52.6374 29.2694 52.8757 29.1315C53.2246 28.9303 53.5634 28.6085 53.9338 28.5668C54.7135 28.4792 55.5117 28.5194 56.2999 28.5453C56.7752 28.5611 56.9575 28.3671 56.9259 27.9131C56.9159 27.7709 56.9101 27.6243 56.9274 27.4821C57.0063 26.8628 56.7637 26.6545 56.1233 26.6588C52.2942 26.6861 48.4651 26.6732 44.636 26.6717C43.43 26.6717 43.3065 26.5496 43.3008 25.3715C43.2979 24.5812 43.2965 23.791 43.3022 23.0008C43.3094 21.9247 43.4659 21.7724 44.5685 21.7709C51.2935 21.7695 58.0185 21.7695 64.7449 21.7695C65.5102 21.7695 66.2769 21.7752 67.0421 21.7709C67.6925 21.768 68.0098 22.0712 67.9998 22.7364C67.9854 23.7177 68.0041 24.7005 67.994 25.6818C67.9868 26.4217 67.7456 26.6646 66.9948 26.6674C64.7694 26.676 62.5425 26.6703 60.3171 26.6717C59.3021 26.6717 59.2992 26.6732 59.3121 27.6904C59.3136 27.9505 59.3451 28.2076 59.3681 28.5395ZM36.0446 45.9963C36.0446 45.9977 36.0446 45.9977 36.0446 45.9991C37.5521 45.9991 39.0582 46.0035 40.5657 45.9977C41.4702 45.9948 41.7301 45.7491 41.7358 44.8584C41.7473 43.3512 41.7473 41.8426 41.7373 40.3354C41.7315 39.482 41.4645 39.2075 40.6203 39.2047C37.5822 39.196 34.5442 39.1975 31.5062 39.2075C30.6591 39.2104 30.415 39.4748 30.4107 40.3483C30.4021 41.8555 30.4007 43.3641 30.4107 44.8713C30.4165 45.7247 30.6806 45.9877 31.5249 45.992C33.0295 46.0006 34.537 45.9963 36.0446 45.9963ZM36.0402 55.4373C37.6397 55.4373 39.2405 55.443 40.8399 55.4344C41.6569 55.4301 41.7401 55.3252 41.7401 54.4402C41.7401 53.5393 41.6569 53.4244 40.8643 53.4215C37.6641 53.4157 34.4652 53.4344 31.2664 53.4114C30.5442 53.4071 30.3748 53.7304 30.3935 54.3769C30.4107 54.9833 30.4193 55.4631 31.242 55.4459C32.84 55.4129 34.4408 55.4373 36.0402 55.4373ZM36.0417 59.9042C37.6411 59.9042 39.2405 59.9099 40.8399 59.9013C41.6497 59.897 41.7373 59.7864 41.7387 58.9013C41.7401 57.9904 41.6626 57.8855 40.8629 57.8841C37.6641 57.8769 34.4638 57.8769 31.265 57.8841C30.4653 57.8855 30.3992 57.9789 30.4035 58.9114C30.4079 59.7892 30.4997 59.9013 31.3124 59.9042C32.8902 59.9085 34.4652 59.9042 36.0417 59.9042ZM36.0733 50.9718C37.6971 50.9718 39.3223 50.9502 40.9462 50.9819C41.677 50.9962 41.7487 50.5939 41.7487 50.0235C41.7487 49.4431 41.7229 48.9948 40.939 48.9991C37.6899 49.0221 34.4423 49.0221 31.1932 48.9991C30.3935 48.9934 30.4079 49.4675 30.3978 50.0336C30.3878 50.6126 30.471 50.9991 31.1989 50.9847C32.8228 50.9488 34.448 50.9732 36.0733 50.9718ZM48.8801 22.9663C47.8765 22.9663 46.8715 22.9677 45.8679 22.9663C45.3424 22.9649 45.0624 23.2077 45.071 23.7493C45.0753 23.9879 45.0667 24.2278 45.0696 24.4663C45.0811 25.3226 45.2046 25.449 46.0861 25.4519C47.8076 25.4577 49.529 25.4548 51.2505 25.4534C52.5627 25.4534 52.6072 25.4059 52.5957 24.0683C52.5943 23.972 52.5929 23.8772 52.5929 23.781C52.5972 23.2134 52.3129 22.9563 51.7487 22.962C50.7925 22.9735 49.8363 22.9663 48.8801 22.9663ZM23.2005 25.4548C24.1078 25.4548 25.0152 25.4591 25.9226 25.4534C26.8357 25.4476 26.9319 25.3442 26.9377 24.4045C26.9391 24.2608 26.9248 24.1172 26.9391 23.9749C27.008 23.2767 26.7123 22.9677 25.9973 22.9749C24.2787 22.9907 22.5587 22.9677 20.8401 22.9649C19.4589 22.962 19.4029 23.0223 19.4245 24.4332C19.4259 24.5051 19.4273 24.5769 19.4273 24.6488C19.4202 25.2149 19.6872 25.4706 20.2629 25.4591C21.2421 25.439 22.2213 25.4534 23.2005 25.4548ZM36.1465 61.5191C34.9922 61.4789 34.0374 62.3381 33.9843 63.4631C33.9297 64.634 34.8271 65.6039 35.9957 65.6383C37.1745 65.6728 38.1364 64.7734 38.1594 63.6154C38.1809 62.4789 37.2965 61.5579 36.1465 61.5191ZM14.0404 25.2436C14.5788 25.2292 15.0211 24.7695 15.0239 24.2235C15.0254 23.6459 14.5458 23.1847 13.9672 23.2062C13.426 23.2264 12.9651 23.6976 12.9694 24.2249C12.9737 24.7781 13.4791 25.2594 14.0404 25.2436ZM59.0336 24.2034C59.0293 23.6416 58.5469 23.2048 57.9482 23.2192C57.4083 23.2335 56.9747 23.7005 56.992 24.2493C57.0092 24.7968 57.4571 25.2393 57.997 25.2422C58.5641 25.2465 59.0379 24.7723 59.0336 24.2034ZM65.1527 25.245C65.7112 25.2479 66.1965 24.7536 66.1836 24.1962C66.1706 23.6603 65.7141 23.2134 65.1699 23.2062C64.6301 23.1991 64.1663 23.6402 64.1448 24.1804C64.1218 24.7508 64.587 25.2422 65.1527 25.245ZM7.85529 24.2307C7.86103 23.6445 7.40447 23.1919 6.82299 23.2048C6.28603 23.2177 5.82946 23.6818 5.8309 24.2149C5.83234 24.7522 6.28029 25.2249 6.80864 25.245C7.38293 25.268 7.84955 24.814 7.85529 24.2307ZM11.436 24.2192C11.4389 23.6531 11.0067 23.2134 10.4425 23.2062C9.87537 23.1991 9.43747 23.6215 9.42311 24.189C9.40876 24.7939 9.8524 25.2508 10.4454 25.2407C11.001 25.2307 11.4331 24.7853 11.436 24.2192ZM62.5928 24.2608C62.61 23.6919 62.2037 23.2436 61.638 23.2077C61.058 23.1703 60.5799 23.6301 60.5784 24.2264C60.577 24.7853 61.0163 25.2364 61.5691 25.2436C62.1348 25.2493 62.5741 24.8269 62.5928 24.2608Z" fill="#001E42"/>
<path d="M16.3965 3.00094C19.5077 3.00094 22.6204 2.99951 25.7316 3.00094C27.0683 3.00238 27.3468 3.27968 27.3468 4.58857C27.3454 9.13882 27.3468 13.6891 27.3454 18.2407C27.3454 19.5209 27.0611 19.8212 25.7934 19.8212C19.4977 19.8269 13.2019 19.8269 6.90624 19.8241C5.72462 19.8241 5.40589 19.5037 5.40589 18.3356C5.40158 13.7365 5.40158 9.13882 5.40302 4.53972C5.40302 3.27824 5.6916 3.00238 6.98807 3.00094C10.1237 2.99951 13.2594 3.00094 16.3965 3.00094ZM16.3634 5.15179C16.3634 5.15466 16.3634 5.1561 16.3634 5.15897C13.9212 5.15897 11.4805 5.14604 9.03974 5.16472C7.88541 5.17334 7.38146 5.69201 7.37572 6.85148C7.3628 9.86869 7.3628 12.8859 7.37429 15.9046C7.37859 17.1718 7.91556 17.7048 9.16465 17.7063C13.9284 17.712 18.6908 17.712 23.4545 17.7063C24.8673 17.7048 25.4043 17.1603 25.4071 15.7422C25.4129 12.8687 25.4129 9.99513 25.4057 7.12016C25.4028 5.65465 24.8917 5.1561 23.4014 5.15322C21.0554 5.14748 18.7094 5.15179 16.3634 5.15179Z" fill="#001E42"/>
<path d="M55.75 3.00094C58.8828 3.00094 62.017 2.99806 65.1498 3.00238C66.2782 3.00381 66.62 3.32708 66.6228 4.4492C66.6329 9.08996 66.6329 13.7322 66.6257 18.3729C66.6243 19.4879 66.2739 19.8255 65.1526 19.8269C58.8383 19.8298 52.5239 19.8298 46.2095 19.8255C44.9561 19.8241 44.6618 19.5137 44.6604 18.235C44.6575 13.6876 44.6575 9.14168 44.6604 4.59431C44.6618 3.28829 44.9532 3.00525 46.277 3.00381C49.4356 2.9995 52.5928 3.00094 55.75 3.00094ZM55.6524 17.7077C57.9984 17.7077 60.3443 17.7106 62.6903 17.7063C64.1333 17.7034 64.6645 17.2034 64.6702 15.7781C64.6831 12.8557 64.6831 9.93478 64.6702 7.01239C64.6645 5.65896 64.1433 5.15322 62.7851 5.15178C58.0213 5.14747 53.2576 5.14747 48.4938 5.15322C47.1499 5.15465 46.6273 5.67907 46.6244 7.0282C46.6173 9.95058 46.6173 12.8715 46.6244 15.7939C46.6273 17.1761 47.1557 17.7005 48.544 17.7048C50.913 17.7134 53.2834 17.7077 55.6524 17.7077Z" fill="#001E42"/>
</svg>
