<svg width="76" height="70" viewBox="0 0 76 70" fill="none" xmlns="http://www.w3.org/2000/svg">
<rect width="76" height="70" fill="white"/>
<rect x="13" y="17" width="63" height="53" fill="#00FEFF"/>
<path d="M30.675 57.144C22.1069 57.144 13.5398 57.1461 4.97165 57.1419C3.0105 57.1409 1.39278 55.8793 1.064 54.1179C0.64099 51.8472 2.36446 49.7846 4.76642 49.7184C5.86479 49.6884 6.96526 49.7112 8.06468 49.7112C24.1528 49.7112 40.242 49.7122 56.3301 49.7101C57.8547 49.7101 59.1059 50.2504 59.908 51.5616C61.3801 53.9699 59.6483 57.0012 56.7448 57.1295C56.2223 57.1523 55.6977 57.1368 55.1742 57.1368C47.0081 57.1368 38.841 57.1368 30.675 57.1368C30.675 57.1399 30.675 57.1419 30.675 57.144ZM46.7422 51.2263C45.4909 51.2221 44.4753 52.226 44.4816 53.4607C44.4878 54.6674 45.4972 55.6641 46.7202 55.6713C47.9557 55.6785 48.9976 54.6478 48.986 53.4296C48.9756 52.2209 47.9662 51.2304 46.7422 51.2263ZM54.4967 53.4576C54.5041 52.2343 53.5251 51.2428 52.2948 51.2273C51.0425 51.2118 50.0122 52.2074 50.009 53.4359C50.0059 54.6695 51.0257 55.6775 52.2707 55.6723C53.4957 55.6661 54.4894 54.6767 54.4967 53.4576Z" fill="#001E42"/>
<path d="M22.8555 41.5362C21.5247 38.9975 21.8713 34.6518 25.0878 31.9289C28.2217 29.2774 32.9806 29.2712 36.0956 31.9382C39.2944 34.6767 40.0064 39.2821 37.7636 42.7729C35.3732 46.4924 30.9493 47.3183 28.0008 46.2264C28.1086 46.1023 28.1966 45.9874 28.2992 45.886C29.5923 44.6047 30.8886 43.3266 32.1807 42.0443C32.944 41.2867 32.945 40.6223 32.1786 39.8606C31.2561 38.9437 30.3315 38.0298 29.3997 37.1232C28.7274 36.4692 28.0165 36.4702 27.3401 37.1336C25.9653 38.48 24.5989 39.8358 23.2293 41.1863C23.1204 41.295 23.0042 41.3975 22.8555 41.5362Z" fill="#001E42"/>
<path d="M48.2122 11.7002C45.0669 14.7988 41.9948 17.8249 38.8452 20.9266C39.8661 21.2733 40.799 21.5869 41.7288 21.9077C42.6796 22.2358 43.3298 22.8681 43.6334 23.8223C43.847 24.4929 43.78 25.1336 43.2596 25.6489C42.734 26.1695 42.0534 26.2389 41.4053 25.9956C39.3677 25.2308 37.3322 24.4567 35.3334 23.6008C34.368 23.1879 33.8099 22.4086 33.7921 21.2816C33.7586 19.1092 33.6801 16.9369 33.589 14.7657C33.5617 14.1116 33.7617 13.5962 34.2245 13.1408C36.3762 11.0244 38.5164 8.89555 40.6682 6.77913C41.4357 6.02466 42.4712 6.10953 43.402 7.00991C44.4994 8.07071 45.5736 9.15635 46.6626 10.2254C47.1474 10.7015 47.6437 11.16 48.2122 11.7002Z" fill="#001E42"/>
<path d="M27.9955 10.0505C28.1327 10.9664 28.2552 11.7892 28.3861 12.6689C28.2311 12.6761 28.0133 12.6937 27.7955 12.6937C22.2995 12.6948 16.8024 12.6948 11.3064 12.6948C9.30019 12.6948 8.36097 13.6262 8.36097 15.6091C8.36097 26.4748 8.36202 37.3395 8.36306 48.2052C8.36306 48.4277 8.36306 48.6492 8.36306 48.9141C7.45107 48.9141 6.57468 48.9141 5.63546 48.9141C5.63546 48.6937 5.63546 48.4919 5.63546 48.2901C5.63546 37.3384 5.63442 26.3868 5.63651 15.4352C5.63756 12.2466 7.87408 10.0195 11.0896 10.0184C16.5857 10.0153 22.0827 10.0246 27.5788 10.0309C27.7494 10.0298 27.9201 10.0464 27.9955 10.0505Z" fill="#001E42"/>
<path d="M45.1161 22.572C44.5517 21.4626 43.5863 20.6357 42.1707 20.1141C43.0198 19.3048 43.8062 18.5762 44.5685 17.8248C47.2846 15.1475 49.986 12.4536 52.7084 9.78241C54.1806 8.33869 55.9354 7.87711 57.8924 8.60984C59.8253 9.33326 60.8451 10.8039 60.9875 12.8292C61.064 13.9087 60.7917 14.9488 60.0839 15.784C59.3039 16.704 58.4212 17.5382 57.4757 18.5203C56.9699 17.9697 56.5438 17.4409 56.0517 16.9824C54.8591 15.8709 53.1565 15.5873 51.8435 16.2838C51.0435 16.7081 50.4457 17.3529 50.009 18.1467C49.9106 18.3257 49.7452 18.5027 49.5661 18.599C48.6981 19.0657 48.028 19.7156 47.5631 20.5777C47.4919 20.7102 47.4144 20.8561 47.2992 20.9441C46.5914 21.4843 45.8742 22.009 45.1161 22.572Z" fill="#001E42"/>
<path d="M46.7453 25.0497C46.36 23.548 47.6332 22.2657 49.2185 22.6507C49.0331 21.9231 49.1201 21.3022 49.6719 20.7423C50.232 20.1751 50.8592 20.0851 51.6215 20.2486C51.6215 20.1193 51.6393 20.0354 51.6183 19.962C51.3608 19.0222 51.923 18.3982 52.6214 17.9366C53.1879 17.562 54.0496 17.6406 54.6622 18.2067C55.8349 19.2882 56.9741 20.408 58.0766 21.5599C58.6578 22.1674 58.7667 23.0833 58.3824 23.6215C57.796 24.4442 57.2547 24.8427 56.2809 24.616C56.2191 24.6015 56.1511 24.614 56.0851 24.614C56.1511 26.4644 55.637 26.9767 53.6507 27.0647C53.7135 28.8717 52.8968 29.6748 51.2006 29.4315C51.2006 29.5309 51.1828 29.6282 51.2037 29.7172C51.4194 30.6466 50.9241 31.2572 50.2132 31.7043C49.5054 32.1493 48.7368 31.9878 48.1725 31.4735C46.9662 30.3785 45.8061 29.2287 44.6941 28.0396C44.1706 27.4797 43.9968 26.7138 44.446 26.0225C44.9255 25.2846 45.5433 24.7702 46.5464 25.0476C46.5935 25.061 46.649 25.0497 46.7453 25.0497Z" fill="#001E42"/>
<path d="M55.771 29.5215C55.771 35.8729 55.771 42.366 55.771 48.9078C54.8894 48.9078 54.0161 48.9078 53.0978 48.9078C53.0884 48.7091 53.0727 48.5249 53.0727 48.3396C53.0717 43.0812 53.0759 37.8227 53.0654 32.5642C53.0643 31.9867 53.302 31.6576 53.7847 31.314C54.5208 30.7914 55.1375 30.1073 55.771 29.5215Z" fill="#001E42"/>
<path d="M44.8564 30.8567C43.3287 32.3614 41.8272 33.8403 40.2922 35.3524C39.1792 32.1069 36.9615 29.8869 33.5816 28.7113C33.9439 28.3439 34.2632 28.0158 34.5868 27.6929C35.0527 27.2282 35.5354 26.778 35.9846 26.2978C36.2192 26.0474 36.4254 25.9967 36.7553 26.1312C37.9615 26.6259 39.1708 27.1196 40.4032 27.547C40.9833 27.7478 41.6199 27.7881 42.2272 27.9175C42.3738 27.9485 42.5926 28.0148 42.6324 28.1193C43.0104 29.1128 43.8009 29.7762 44.5213 30.4986C44.6417 30.6207 44.7548 30.748 44.8564 30.8567Z" fill="#001E42"/>
<path d="M30.3462 10.7656C30.5263 10.4272 30.6373 10.0225 30.897 9.76172C33.011 7.63391 35.1543 5.53508 37.2851 3.42383C37.6338 3.0792 38.0515 2.96536 38.5269 3.00882C39.5803 3.10507 40.5509 4.05824 40.5509 5.10559C40.5509 5.48126 40.3949 5.95423 40.1373 6.21606C38.0201 8.36457 35.8632 10.4738 33.7177 12.5943C33.3419 12.9659 32.8864 13.0735 32.3712 12.9772C31.298 12.7765 30.4624 11.8378 30.3462 10.7656Z" fill="#001E42"/>
<path d="M22.2796 24.2228L13.478 15.3131L13.4686 27.9278L17.0956 26.4024L19.2965 30.956L21.3666 29.9791L19.2086 25.5144L22.2796 24.2228Z" fill="#001E42"/>
</svg>
