<svg width="76" height="70" viewBox="0 0 76 70" fill="none" xmlns="http://www.w3.org/2000/svg">
<rect width="76" height="70" fill="white"/>
<rect x="13" y="17" width="63" height="53" fill="#00FEFF"/>
<path d="M23.5914 57.0223C18.5894 57.0149 13.5874 57.0167 8.58535 57.0167C6.08342 57.0167 3.58334 57.013 1.08141 57.0223C0.238187 57.026 0.0125885 57.2571 0.00519185 58.0948C-0.00405401 58.9362 0.00149351 59.7775 0.00334268 60.6189C0.00519185 61.7783 0.160522 61.9337 1.32735 61.9392H7.1393C7.49249 61.9374 7.84383 61.9337 8.19702 61.9281C8.28209 61.9263 8.35975 61.93 8.43002 61.9392H18.6985C20.3775 61.9392 22.0584 61.9392 23.7375 61.9374C24.6047 61.9355 24.8118 61.734 24.8229 60.8833C24.8359 60.0179 24.8303 59.1525 24.8285 58.2871C24.8266 57.1776 24.6898 57.0241 23.5914 57.0223ZM2.81963 60.5043C2.28892 60.4839 1.83957 60.0105 1.83772 59.4706C1.83587 58.9343 2.29447 58.4683 2.83442 58.4554C3.42061 58.4424 3.87736 58.8973 3.87181 59.4854C3.86626 60.0716 3.39657 60.5265 2.81963 60.5043ZM6.47544 60.5006C5.88001 60.5117 5.43251 60.0531 5.44915 59.4447C5.46395 58.8751 5.90405 58.4517 6.47359 58.4591C7.03944 58.4665 7.474 58.9084 7.47215 59.4761C7.46845 60.042 7.03389 60.4895 6.47544 60.5006ZM10.0869 60.5024C9.52288 60.5172 9.01621 60.0346 9.01066 59.4798C9.00696 58.9491 9.46925 58.4776 10.0129 58.4572C10.5935 58.435 11.0762 58.8992 11.0743 59.478C11.0725 60.0272 10.6287 60.4876 10.0869 60.5024ZM23.0496 59.2283C23.0348 59.3707 23.0496 59.5168 23.0477 59.6592C23.0403 60.6023 22.9442 60.7058 22.027 60.7114C21.1153 60.7169 20.2037 60.7132 19.2921 60.7132C18.3083 60.7114 17.3245 60.6984 16.3408 60.7169C15.762 60.728 15.4939 60.471 15.5013 59.9033C15.5031 59.8312 15.4994 59.759 15.4994 59.6869C15.4772 58.2705 15.5327 58.2113 16.9214 58.2131C18.6485 58.2168 20.3757 58.239 22.1028 58.2224C22.8203 58.2187 23.1198 58.5275 23.0496 59.2283Z" fill="#001E42"/>
<path d="M62.9972 58.2871C62.9954 57.1776 62.8585 57.0241 61.7601 57.0223C56.7581 57.0149 51.7561 57.0167 46.7541 57.0167C44.2522 57.0167 41.7521 57.013 39.2502 57.0223C38.4069 57.026 38.1814 57.2571 38.174 58.0948C38.1647 58.9362 38.1703 59.7775 38.1721 60.6189C38.174 61.7783 38.3293 61.9337 39.4961 61.9392H45.3081C45.6613 61.9374 46.0126 61.9337 46.3658 61.9281C46.4508 61.9263 46.5285 61.93 46.5988 61.9392H56.8672C58.5463 61.9392 60.2272 61.9392 61.9062 61.9374C62.7735 61.9355 62.9806 61.734 62.9917 60.8833C63.0046 60.0198 62.9991 59.1525 62.9972 58.2871ZM40.9865 60.5043C40.4558 60.4839 40.0065 60.0105 40.0046 59.4706C40.0028 58.9343 40.4614 58.4683 41.0013 58.4554C41.5875 58.4424 42.0443 58.8973 42.0387 59.4854C42.035 60.0716 41.5653 60.5265 40.9865 60.5043ZM44.6424 60.5006C44.0469 60.5117 43.5994 60.0531 43.6161 59.4447C43.6309 58.8751 44.071 58.4517 44.6405 58.4591C45.2064 58.4665 45.6409 58.9084 45.6391 59.4761C45.6354 60.042 45.2008 60.4895 44.6424 60.5006ZM48.2538 60.5024C47.6898 60.5172 47.1831 60.0346 47.1776 59.4798C47.1739 58.9491 47.6362 58.4776 48.1798 58.4572C48.7605 58.435 49.2431 58.8992 49.2412 59.478C49.2394 60.0272 48.7956 60.4876 48.2538 60.5024ZM61.2165 59.2283C61.2017 59.3707 61.2165 59.5168 61.2146 59.6592C61.2072 60.6023 61.1111 60.7058 60.1939 60.7114C59.2822 60.7169 58.3706 60.7132 57.459 60.7132C56.4752 60.7114 55.4914 60.6984 54.5077 60.7169C53.9289 60.728 53.6608 60.471 53.6682 59.9033C53.67 59.8312 53.6663 59.759 53.6663 59.6869C53.6441 58.2705 53.6996 58.2113 55.0883 58.2131C56.8155 58.2168 58.5426 58.239 60.2697 58.2224C60.989 58.2187 61.2868 58.5275 61.2165 59.2283Z" fill="#001E42"/>
<path d="M46.449 33.5156C46.7596 33.695 47.0629 33.9816 47.3939 34.0186C48.0892 34.0962 49.3762 34.0611 50.0789 34.0371C50.1621 34.0334 50.2176 34.0389 50.2509 34.05H50.114V38.1663C47.1332 38.1663 44.1504 38.1663 41.1696 38.1663C39.8678 38.1663 39.5774 38.4455 39.5774 39.7103C39.5756 44.3277 39.5756 48.9451 39.5774 53.5625C39.5774 54.7348 39.8973 55.0566 41.0864 55.0566C47.4124 55.0603 53.7384 55.0584 60.0644 55.0529C61.3385 55.0511 61.6233 54.7515 61.6251 53.4663C61.627 48.897 61.6251 44.3277 61.627 39.7584C61.627 38.4455 61.3477 38.1663 60.0052 38.1644C57.4182 38.1626 54.8331 38.1644 52.2461 38.1644V34.0482V34.0426C53.2946 34.0426 54.2931 34.0426 55.2935 34.0426C56.1738 34.0408 56.4844 33.7356 56.4918 32.8554C56.4974 32.1934 56.5066 31.5314 56.4881 30.8694C56.4715 30.2463 56.1645 29.8875 55.5469 29.882C52.7916 29.8616 50.0345 29.8561 47.2792 29.8968C46.9926 29.9005 46.7134 30.2574 46.4268 30.446C46.2382 30.5699 46.044 30.7807 45.8498 30.7825C43.0742 30.8066 40.2986 30.8084 37.5212 30.7899C37.3104 30.7881 36.9941 30.6531 36.9091 30.4867C36.6502 29.9855 36.2526 29.8579 35.7497 29.8616C34.8731 29.8672 33.9966 29.8357 33.122 29.8709C32.4692 29.8968 32.5358 29.4936 32.5339 29.1127H32.5654V26.4986H46.351V26.4912C46.4564 26.4949 46.5618 26.4986 46.6672 26.4986C51.0811 26.4986 54.6611 22.9205 54.6611 18.5047C54.6611 14.9986 52.4033 12.0215 49.2634 10.9434C49.6277 10.0299 49.8292 9.0332 49.8292 7.99027C49.8256 3.57815 46.2474 0 41.8316 0C39.1928 0 36.8518 1.27963 35.3965 3.25269C34.3794 2.78485 33.2477 2.52042 32.055 2.52042C30.5036 2.52042 29.0557 2.96422 27.8297 3.72978C26.7072 3.1288 25.4239 2.7867 24.061 2.7867C19.734 2.7867 16.2113 6.22616 16.0745 10.5218C11.7807 10.6586 8.33938 14.1813 8.33938 18.5084C8.33938 22.9223 11.9175 26.5023 16.3334 26.5023H30.4296V28.9777C30.4074 29.024 30.3945 29.0702 30.3945 29.1164C30.4074 29.5158 30.4333 29.9023 29.8305 29.8727C29.1906 29.8431 28.549 29.8653 27.9073 29.869C27.4247 29.8709 27.0475 30.0077 26.8256 30.5033C26.7571 30.6568 26.4668 30.7955 26.2782 30.7973C23.2234 30.8158 20.1685 30.8158 17.1137 30.7955C16.914 30.7936 16.7143 30.5791 16.5164 30.4608C16.191 30.2666 15.8692 29.9042 15.5401 29.8986C12.8495 29.8524 10.1571 29.8709 7.46472 29.8764C6.84525 29.8783 6.5013 30.2148 6.48096 30.8214C6.45692 31.5888 6.45323 32.3599 6.48836 33.1273C6.51795 33.7578 6.84525 34.0352 7.48691 34.0445C8.38376 34.0556 9.8668 34.0648 10.7618 34.0426C10.845 34.0408 10.9005 34.0445 10.9319 34.0556H10.7618V38.1718C8.17295 38.1718 5.58411 38.1718 2.99527 38.1718C1.69346 38.1718 1.40314 38.451 1.40314 39.7159C1.40499 44.3314 1.40499 48.9488 1.40868 53.5662C1.40868 54.7385 1.72859 55.0603 2.91761 55.0603C9.24362 55.064 15.5696 55.064 21.8957 55.0584C23.1697 55.0566 23.4545 54.757 23.4564 53.4719C23.4582 48.9026 23.4564 44.3333 23.4582 39.7639C23.4582 38.451 23.179 38.1718 21.8365 38.17C18.8575 38.1681 15.8785 38.17 12.8994 38.17V34.0537C13.604 34.0352 14.878 34.087 15.577 34.0241C15.8766 33.9964 16.2853 33.8263 16.4184 33.5914C16.6403 33.2012 16.8992 33.1162 17.2912 33.118C20.2388 33.1254 23.1882 33.1254 26.1358 33.118C26.5056 33.1162 26.7442 33.1901 26.9457 33.5692C27.0733 33.8078 27.482 34.0241 27.7686 34.0278C30.5036 34.0611 33.2385 34.0611 35.9716 34.026C36.2545 34.0223 36.6521 33.7948 36.7889 33.5544C37.0015 33.1827 37.253 33.118 37.6173 33.1199C40.3504 33.1291 43.0853 33.1217 45.8184 33.1513C46.0292 33.1495 46.2363 33.3936 46.449 33.5156ZM57.6605 40.3298C59.1583 40.3335 59.6724 40.8346 59.6742 42.3047C59.6798 45.1913 59.6816 48.076 59.6761 50.9625C59.6742 52.3864 59.1343 52.9319 57.7141 52.9338C52.9285 52.9393 48.141 52.9393 43.3553 52.9338C42.0997 52.9319 41.5616 52.3975 41.556 51.1253C41.545 48.0945 41.545 45.0655 41.5579 42.0347C41.5634 40.8698 42.0701 40.3501 43.2296 40.3409C45.6834 40.3224 48.1354 40.3353 50.5893 40.3353V40.3279C52.9469 40.3279 55.3046 40.3242 57.6605 40.3298ZM19.4936 40.3298C20.9914 40.3335 21.5055 40.8346 21.5073 42.3047C21.5129 45.1913 21.5147 48.076 21.5092 50.9625C21.5073 52.3864 20.9674 52.9319 19.5472 52.9338C14.7616 52.9393 9.97405 52.9393 5.18839 52.9338C3.9328 52.9319 3.3947 52.3975 3.38915 51.1253C3.37805 48.0945 3.37805 45.0655 3.391 42.0347C3.39654 40.8698 3.90322 40.3501 5.06265 40.3409C7.5165 40.3224 9.9685 40.3353 12.4224 40.3353V40.3279C14.7782 40.3279 17.1359 40.3242 19.4936 40.3298Z" fill="#001E42"/>
</svg>
