<svg width="76" height="70" viewBox="0 0 76 70" fill="none" xmlns="http://www.w3.org/2000/svg">
<rect width="76" height="70" fill="white"/>
<rect x="13" y="17" width="63" height="53" fill="#00FEFF"/>
<path d="M28.8623 55.8557L27.4257 55.214C24.979 54.1225 22.9739 52.2207 21.7429 49.828L21.2429 48.8541C21.1643 48.7007 21.0906 48.5423 21.017 48.3838C19.6033 48.3838 18.1871 48.3812 16.7734 48.3812C13.9865 48.3812 11.2022 48.3914 8.41542 48.3787C6.98139 48.371 6.81642 48.1742 6.8088 46.6123C6.80119 44.9559 6.91794 44.7897 8.33166 44.7846C12.2479 44.7769 16.1642 44.7769 20.0805 44.7795C19.9409 43.3838 20.0272 41.9037 20.3698 40.4364C19.1693 40.4364 17.9713 40.4339 16.7708 40.4339C13.9434 40.4339 11.1134 40.3904 8.28597 40.4518C6.83165 40.4824 6.81642 39.6287 6.78596 38.5499C6.75297 37.3996 7.05246 36.8219 8.32912 36.8321C12.8165 36.8628 17.3038 36.85 21.7912 36.8475C22.4891 35.6486 23.4028 34.5162 24.5653 33.5141C25.012 33.1307 25.4815 32.7779 25.9714 32.461C25.8191 32.4916 25.6465 32.5095 25.4409 32.5044C22.5704 32.4482 19.6972 32.4865 16.8267 32.4865C13.9561 32.4865 11.083 32.4456 8.21237 32.507C6.92302 32.5351 6.77835 31.8449 6.79611 30.8147C6.81388 29.8101 6.78596 28.964 8.20222 28.9743C13.9459 29.0177 19.6871 29.0152 25.4308 28.9743C26.8166 28.964 26.8623 29.7641 26.8623 30.7969C26.8623 31.326 26.8267 31.7708 26.611 32.075C27.8572 31.3669 29.2151 30.871 30.6313 30.6077C30.6288 26.4998 30.6237 22.3894 30.6186 18.2815C29.8471 17.4814 29.1009 14.9328 28.7735 13.6956C28.6567 13.256 28.7024 12.7882 28.908 12.3817C29.2963 11.6174 29.9689 10.3623 30.4537 9.86383C30.507 9.81014 30.5577 9.75646 30.611 9.70278C30.611 9.69767 30.611 9.69256 30.611 9.68744C30.611 9.13019 30.4105 8.50646 30.1161 8.02845C29.4968 7.01873 28.6922 6.12149 28.0831 5.10667C27.6059 4.31423 27.0196 3.99726 26.1186 4.01515C24.1313 4.0535 22.1389 3.9717 20.1541 4.04838L13.6236 4.04583C11.7632 3.98192 9.89766 4.10207 8.03978 4.00748C6.74281 3.94102 5.85702 4.30656 5.28087 5.531C4.923 6.2902 4.31894 6.92415 3.90269 7.66035C3.54482 8.29174 3.04228 8.98448 3.03974 9.6491C2.99151 26.0525 2.99659 42.4533 3.00674 58.8567C3.00674 60.4441 3.57274 60.9911 5.17935 60.9937C12.9231 61.0039 20.6642 61.0014 28.408 60.9886C30.0933 60.986 30.6288 60.4646 30.6288 58.7723C30.6288 57.9671 30.6288 57.1644 30.6288 56.3592C30.0222 56.2365 29.4334 56.0704 28.8623 55.8557ZM6.81388 13.5883C6.82403 12.0341 7.25551 11.5637 8.75044 11.5586C14.121 11.5382 19.4916 11.5382 24.8623 11.5535C26.3572 11.5586 26.8267 12.0469 26.8369 13.5653C26.8597 16.2467 26.8572 18.9282 26.8369 21.6123C26.8242 23.1972 26.3673 23.6317 24.7683 23.6394C22.1033 23.6496 19.4409 23.6419 16.7759 23.6419C16.7759 23.6394 16.7759 23.6394 16.7759 23.6368C14.1109 23.6368 11.4484 23.6471 8.78344 23.6343C7.29104 23.6266 6.82403 23.1588 6.81388 21.6404C6.79611 18.9538 6.79865 16.2723 6.81388 13.5883ZM16.6921 58.5806C14.6261 58.5193 13.0398 56.7938 13.1363 54.7105C13.2276 52.7089 14.9155 51.1803 16.9586 51.2519C18.9942 51.3209 20.5576 52.9594 20.517 54.9789C20.4739 57.0417 18.7734 58.6445 16.6921 58.5806Z" fill="#001E42"/>
<path d="M24.8476 46.9726C23.4415 44.2375 23.807 39.5544 27.208 36.6199C30.5228 33.762 35.5533 33.7569 38.8477 36.6301C42.231 39.58 42.9848 44.5417 40.6117 48.3044C38.0838 52.3126 33.4061 53.2022 30.2893 52.0263C30.4035 51.8934 30.4974 51.7681 30.604 51.6582C31.972 50.2779 33.3426 48.9 34.7081 47.5197C35.5152 46.7042 35.5152 45.9859 34.7056 45.1654C33.7309 44.1787 32.7512 43.192 31.7665 42.2155C31.0558 41.51 30.3045 41.5125 29.5888 42.2257C28.1344 43.6776 26.6903 45.1373 25.241 46.5943C25.1268 46.7119 25.005 46.8218 24.8476 46.9726Z" fill="#001E42"/>
<path d="M51.66 14.8229C48.3325 18.1614 45.0863 21.4232 41.7564 24.7642C42.8376 25.1374 43.8224 25.4748 44.8071 25.8224C45.8122 26.1752 46.5 26.8577 46.8224 27.8853C47.0483 28.6087 46.9772 29.2989 46.4264 29.8536C45.8706 30.4134 45.1498 30.4901 44.4645 30.2268C42.3097 29.4037 40.1574 28.5678 38.0431 27.6476C37.0228 27.2028 36.4314 26.3618 36.4137 25.1501C36.3781 22.8086 36.2944 20.4697 36.1979 18.1282C36.17 17.4226 36.3807 16.8679 36.8705 16.3771C39.1472 14.097 41.4086 11.8015 43.6853 9.52131C44.4975 8.70842 45.5914 8.80045 46.5762 9.76926C47.7361 10.9119 48.8732 12.0827 50.0255 13.233C50.5331 13.7468 51.0585 14.2401 51.66 14.8229Z" fill="#001E42"/>
<path d="M48.3859 26.5381C47.7895 25.3418 46.7691 24.4523 45.2717 23.8899C46.1702 23.0182 47.0001 22.2334 47.8072 21.4231C50.6803 18.5371 53.5357 15.6358 56.4139 12.7575C57.9697 11.2007 59.8276 10.7048 61.8962 11.4947C63.9393 12.2743 65.018 13.8592 65.1703 16.0397C65.2515 17.2028 64.9622 18.325 64.2134 19.2222C63.3886 20.214 62.4546 21.1113 61.4545 22.1721C60.919 21.579 60.4698 21.009 59.9495 20.5156C58.688 19.3193 56.8885 19.0126 55.5002 19.7616C54.655 20.2191 54.023 20.9144 53.5611 21.7682C53.457 21.9599 53.2819 22.1516 53.0941 22.2564C52.1753 22.76 51.4672 23.4604 50.9748 24.3883C50.8986 24.5315 50.8174 24.6874 50.6956 24.782C49.9468 25.3648 49.1879 25.9323 48.3859 26.5381Z" fill="#001E42"/>
<path d="M50.1093 29.2069C49.7006 27.5888 51.0484 26.2084 52.726 26.6225C52.5306 25.8377 52.622 25.1706 53.2057 24.5647C53.7971 23.9538 54.4621 23.8567 55.2667 24.033C55.2667 23.8925 55.2844 23.803 55.2641 23.7237C54.9926 22.7115 55.5865 22.0392 56.3251 21.5407C56.924 21.1368 57.8352 21.2212 58.4824 21.8321C59.7236 22.9978 60.9266 24.2043 62.0916 25.4466C62.7058 26.101 62.82 27.0877 62.4139 27.668C61.7946 28.555 61.221 28.9845 60.1906 28.7391C60.1246 28.7237 60.0535 28.7365 59.9824 28.7365C60.051 30.7304 59.5078 31.2825 57.4088 31.3771C57.4748 33.325 56.6119 34.189 54.8174 33.9282C54.8174 34.0356 54.7997 34.1404 54.82 34.235C55.0484 35.237 54.523 35.894 53.7717 36.3746C53.023 36.8551 52.2108 36.6788 51.6144 36.1266C50.3402 34.9456 49.1118 33.7084 47.9367 32.4277C47.3834 31.8245 47.1981 30.9988 47.6752 30.2549C48.1829 29.4599 48.8351 28.9052 49.8961 29.2043C49.9494 29.2197 50.0078 29.2069 50.1093 29.2069Z" fill="#001E42"/>
<path d="M48.1118 35.4645C46.4976 37.0851 44.9088 38.6802 43.2844 40.3086C42.1067 36.8116 39.7615 34.419 36.1879 33.1537C36.5711 32.7574 36.9087 32.4047 37.2513 32.057C37.7437 31.556 38.2539 31.0703 38.731 30.554C38.9798 30.283 39.198 30.2293 39.5458 30.375C40.8224 30.9067 42.0991 31.441 43.4037 31.9011C44.0179 32.1184 44.6905 32.1618 45.3326 32.2999C45.4874 32.3331 45.7184 32.4047 45.7615 32.5172C46.16 33.5882 46.9976 34.3014 47.759 35.0811C47.8834 35.2089 48.0052 35.3469 48.1118 35.4645Z" fill="#001E42"/>
<path d="M32.7665 13.8158C32.9568 13.4502 33.0736 13.0156 33.3502 12.7345C35.5863 10.4415 37.8528 8.17924 40.1041 5.90419C40.4721 5.53354 40.9163 5.41084 41.4188 5.45685C42.5331 5.56166 43.5585 6.58671 43.5585 7.71657C43.5585 8.12045 43.3935 8.6317 43.1219 8.91289C40.8833 11.2288 38.6016 13.5013 36.3325 15.7866C35.934 16.1879 35.4518 16.303 34.9086 16.2007C33.7741 15.9834 32.8908 14.9712 32.7665 13.8158Z" fill="#001E42"/>
</svg>
