<svg width="76" height="70" viewBox="0 0 76 70" fill="none" xmlns="http://www.w3.org/2000/svg">
<rect width="76" height="70" fill="white"/>
<rect x="13" y="17" width="63" height="53" fill="#00FEFF"/>
<path d="M56.7813 13.6213H56.7449V13.9815H56.7813V13.6213Z" fill="#001E42"/>
<path d="M41.7552 32.4507V31.6983L40.5246 29.8094L39.4924 30.4657L40.5287 32.0585V32.4507H30.1375V28.4927C30.4249 28.1766 30.5908 27.7764 30.5908 27.3442C30.5908 26.3957 29.8096 25.6233 28.8502 25.6233C28.8502 25.6233 28.8502 25.6233 28.8461 25.6233C28.3806 25.6233 27.9434 25.8034 27.6155 26.1275C27.2836 26.4517 27.1015 26.8839 27.1015 27.3482C27.1015 27.7884 27.2755 28.1886 27.5548 28.4967V30.1336C28.0446 30.966 28.6397 31.7424 29.3481 32.4427C30.3318 33.4152 31.4692 34.1836 32.7039 34.7319H41.9657C43.1922 34.1876 44.3216 33.4232 45.3012 32.4587H41.7552V32.4507ZM29.2186 27.7123C29.17 27.7604 29.1133 27.7964 29.0526 27.8244H28.6356C28.4454 27.7444 28.3118 27.5603 28.3118 27.3442C28.3118 27.2041 28.3685 27.072 28.4656 26.972C28.5668 26.8719 28.7004 26.8199 28.838 26.8199C29.1295 26.8199 29.3683 27.056 29.3683 27.3442C29.3764 27.4842 29.3198 27.6163 29.2186 27.7123Z" fill="#001E42"/>
<path d="M44.4916 42.8521C43.6497 43.1722 42.7874 43.4363 41.909 43.6404V45.6695C41.6257 45.9776 41.4597 46.3698 41.4557 46.794V46.8501C41.4718 47.2983 41.6621 47.7145 41.994 48.0227C42.3098 48.3148 42.7227 48.4749 43.1558 48.4749C43.168 48.4749 43.1841 48.4749 43.1963 48.4749H43.2084C43.6456 48.4829 44.099 48.3108 44.4309 47.9946C44.7588 47.6785 44.945 47.2543 44.9491 46.802V46.778C44.9369 46.3538 44.7629 45.9696 44.4957 45.6775V42.8521H44.4916ZM43.5768 47.1342C43.4796 47.2263 43.3542 47.2823 43.2246 47.2743H43.1963H43.168C43.0384 47.2783 42.917 47.2343 42.8198 47.1462C42.7267 47.0582 42.6701 46.9381 42.666 46.802C42.666 46.67 42.7186 46.5459 42.8158 46.4539C42.9048 46.3658 43.0222 46.3178 43.1558 46.3138H43.1639H43.2003C43.4918 46.3058 43.7104 46.5219 43.7266 46.798C43.7266 46.9261 43.6699 47.0462 43.5768 47.1342Z" fill="#001E42"/>
<path d="M36.2945 44.1446C35.4201 44.1006 34.5579 43.9966 33.7118 43.8445V45.6534C33.4204 45.9615 33.2504 46.3618 33.2463 46.794V46.85C33.2625 47.2982 33.4528 47.7144 33.7847 48.0226C33.9588 48.1827 34.1652 48.3027 34.3838 48.3788V52.2967C34.3838 52.4568 34.2543 52.5889 34.0802 52.5929H1V53.7935H34.1004C34.9343 53.7855 35.6022 53.1091 35.5982 52.2927V48.3748C36.2459 48.1426 36.7235 47.5303 36.7357 46.806V46.782C36.7235 46.3618 36.5576 45.9896 36.2945 45.6974V44.1446ZM35.0153 47.2742H34.987H34.9586C34.9546 47.2742 34.9465 47.2742 34.9424 47.2742C34.6834 47.2742 34.4648 47.0701 34.4567 46.798C34.4567 46.6659 34.5093 46.5418 34.6064 46.4498C34.6955 46.3617 34.8129 46.3137 34.9465 46.3097H34.9546H34.991C35.2906 46.3017 35.501 46.5178 35.5172 46.794C35.5091 47.0661 35.2906 47.2902 35.0153 47.2742Z" fill="#001E42"/>
<path d="M2.28011 46.5659C6.83005 46.5699 11.3759 46.5699 15.9259 46.5619C16.9177 46.5619 17.2293 46.2577 17.2293 45.2852C17.2293 42.7479 17.2293 40.2107 17.2293 37.6734H20.9211V39.5823C20.9211 40.6229 21.7752 41.4673 22.8277 41.4673H25.5156V45.6654C25.2322 45.9736 25.0663 46.3658 25.0622 46.79V46.846C25.0784 47.2942 25.2687 47.7104 25.6006 48.0186C25.9163 48.3107 26.3292 48.4708 26.7624 48.4708C26.7745 48.4708 26.7907 48.4708 26.8029 48.4708H26.815C26.8231 48.4708 26.8312 48.4708 26.8393 48.4708C27.2886 48.4708 27.7136 48.3027 28.0334 47.9906C28.3613 47.6744 28.5475 47.2502 28.5516 46.798V46.774C28.5394 46.3497 28.3654 45.9656 28.0982 45.6734V41.9355C26.6733 41.1952 25.3375 40.2787 24.115 39.2022H23.2204V38.3617C22.3622 37.5053 21.5971 36.5848 20.9211 35.6123V36.4648H17.2334C17.2334 29.9735 17.2293 23.4782 17.2213 16.987C17.2213 16.6668 17.1039 16.3066 16.9298 16.0305C16.5655 15.4462 16.0919 14.9299 15.7356 14.3457C15.4563 13.8894 15.1122 13.7053 14.582 13.7173C13.74 13.7333 4.56317 13.7413 3.96407 13.7093C3.20305 13.6733 2.68086 13.8814 2.34487 14.5898C2.13438 15.026 1.77815 15.3942 1.53527 15.8184C1.32478 16.1826 1.02928 16.5828 1.02928 16.967C0.996891 26.4197 1.00094 35.8765 1.00499 45.3332C1.00499 46.2497 1.33692 46.5659 2.28011 46.5659ZM26.4264 46.4538C26.5154 46.3658 26.6328 46.3177 26.7664 46.3137H26.7745H26.8109C27.0943 46.3057 27.321 46.5218 27.3372 46.798C27.3331 46.926 27.2805 47.0461 27.1834 47.1341C27.0862 47.2262 26.9688 47.2822 26.8312 47.2742H26.8029H26.7745C26.649 47.2782 26.5195 47.2342 26.4264 47.1461C26.3333 47.0581 26.2766 46.938 26.2726 46.802C26.2766 46.6699 26.3292 46.5458 26.4264 46.4538ZM9.0443 45.1772C7.82991 45.1411 6.89887 44.1486 6.95554 42.948C7.00816 41.7955 7.99992 40.911 9.20217 40.955C10.3963 40.9951 11.3152 41.9395 11.2909 43.1041C11.2667 44.2887 10.2668 45.2132 9.0443 45.1772ZM14.0719 39.2902C12.4122 39.2982 10.7485 39.2942 9.08883 39.2942C7.45344 39.2942 5.81805 39.2982 4.17861 39.2942C3.33663 39.2902 3.23948 39.1781 3.23543 38.2737C3.23138 37.3172 3.3002 37.2212 4.13004 37.2212C7.45344 37.2132 10.7728 37.2132 14.0962 37.2212C14.926 37.2212 15.007 37.3292 15.007 38.2657C15.007 39.1741 14.9139 39.2862 14.0719 39.2902ZM3.23948 19.2321C3.24353 18.3357 3.49855 18.0635 4.37697 18.0595C7.53035 18.0475 10.6878 18.0475 13.8412 18.0555C14.7196 18.0595 14.9949 18.3397 15.0029 19.2161C15.0151 20.7609 15.0151 22.3097 15.0029 23.8584C14.9949 24.7709 14.7277 25.023 13.7886 25.027C12.222 25.031 10.6595 25.027 9.09288 25.027V25.023C7.52631 25.023 5.96378 25.027 4.39721 25.019C3.51879 25.015 3.24758 24.7469 3.23948 23.8704C3.23138 22.3257 3.23138 20.7769 3.23948 19.2321ZM4.05313 28.1046C7.42511 28.1286 10.8011 28.1286 14.1731 28.1046C14.9868 28.1006 15.0151 28.5608 15.0151 29.1531C15.0151 29.7374 14.9382 30.1496 14.1812 30.1376C12.4932 30.1056 10.8092 30.1256 9.12121 30.1256C7.4332 30.1256 5.74519 30.1016 4.06122 30.1376C3.30425 30.1536 3.21924 29.7574 3.22734 29.1611C3.23948 28.5848 3.22329 28.1006 4.05313 28.1046ZM4.13004 32.6348C7.45344 32.6589 10.7768 32.6389 14.0962 32.6429C14.9179 32.6429 15.007 32.7629 15.007 33.6874C15.007 34.5958 14.922 34.7039 14.0719 34.7079C12.4122 34.7159 10.7485 34.7119 9.08883 34.7119C7.42915 34.7119 5.76543 34.6879 4.10575 34.7239C3.25162 34.7439 3.24353 34.2477 3.22329 33.6273C3.20305 32.963 3.38116 32.6308 4.13004 32.6348Z" fill="#001E42"/>
<path d="M43.4027 17.4673C41.4597 17.4673 39.5167 17.4633 37.5736 17.4713C36.9179 17.4753 36.7438 17.6514 36.7357 18.2957C36.7276 18.9401 36.7316 19.5884 36.7357 20.2327C36.7357 21.1251 36.8571 21.2452 37.776 21.2452C37.9825 21.2452 38.1889 21.2452 38.3913 21.2452C39.0957 21.2452 39.8 21.2492 40.5044 21.2492H40.5287V24.7029C40.2979 24.787 40.0874 24.9151 39.9093 25.0911C39.5774 25.4153 39.3952 25.8475 39.3952 26.3118C39.3952 27.1602 40.0267 27.8645 40.8444 28.0046L41.8766 29.5854L42.9048 28.9291L42.1236 27.7325C42.2086 27.6724 42.2936 27.6084 42.3705 27.5324C42.7024 27.2082 42.8846 26.776 42.8846 26.3118C42.8846 25.5754 42.411 24.9511 41.7552 24.707V21.2492C42.2045 21.2492 42.6498 21.2492 43.0991 21.2412C43.1801 21.2412 43.253 21.2452 43.3177 21.2532H47.6086C47.7827 21.2532 47.9527 21.2532 48.1267 21.2532C47.7017 19.8805 47.0095 18.5959 46.0744 17.4713C45.1839 17.4713 44.2933 17.4673 43.4027 17.4673ZM38.9257 20.1447C38.5128 20.1286 38.1646 19.7645 38.1646 19.3523C38.1646 18.94 38.5209 18.5839 38.9378 18.5719C39.3912 18.5599 39.7474 18.912 39.7434 19.3643C39.7393 19.8125 39.375 20.1647 38.9257 20.1447ZM41.5164 26.6839C41.4152 26.784 41.2816 26.836 41.144 26.836C40.8525 26.836 40.6137 26.5999 40.6137 26.3158C40.6137 26.1757 40.6703 26.0436 40.7675 25.9436C40.8687 25.8435 41.0023 25.7915 41.1399 25.7915C41.4314 25.7915 41.6702 26.0276 41.6702 26.3158C41.6742 26.4558 41.6176 26.5879 41.5164 26.6839ZM41.7633 20.1407C41.3018 20.1487 40.9537 19.7965 40.9658 19.3322C40.978 18.896 41.318 18.5719 41.7593 18.5759C42.2005 18.5799 42.5365 18.92 42.5365 19.3563C42.5365 19.7925 42.1964 20.1367 41.7633 20.1407ZM44.5686 20.1447C44.1314 20.1567 43.7347 19.7845 43.7347 19.3603C43.7306 18.9521 44.0909 18.5919 44.5119 18.5759C44.9653 18.5599 45.3377 18.916 45.3377 19.3603C45.3336 19.7805 44.9895 20.1326 44.5686 20.1447Z" fill="#001E42"/>
<path d="M37.8286 14.8179C37.8286 15.7184 38.0756 15.9665 38.9985 15.9665C40.8525 15.9665 42.7065 15.9665 44.5645 15.9665C43.7549 15.2981 42.8603 14.7499 41.9131 14.3337C41.5285 14.3337 41.148 14.3337 40.7634 14.3337C40.0348 14.3337 39.6179 14.1015 39.4519 13.5773C38.9216 13.4772 38.3792 13.4172 37.8327 13.3932C37.8286 13.8694 37.8286 14.3417 37.8286 14.8179Z" fill="#001E42"/>
<path d="M39.6381 5.04103C39.8486 4.7929 40.1805 4.66884 40.6703 4.66484C42.5769 4.64883 44.4795 4.66084 46.3861 4.66084V4.65683C48.2158 4.65683 50.0455 4.65283 51.8792 4.65683C53.041 4.66084 53.4418 5.04503 53.4418 6.1736C53.4458 8.39071 53.4458 10.6038 53.4418 12.8209C53.4418 12.897 53.4337 12.965 53.4296 13.037C53.972 13.7814 54.4659 14.5618 54.895 15.3742C54.9355 15.2101 54.9517 15.006 54.9517 14.7499C54.9517 11.2401 54.9517 7.73438 54.9517 4.22462C54.9517 3.21611 54.7331 3 53.6927 3C51.2639 3 48.8351 3 46.4063 3C43.9573 3 41.5123 3 39.0633 3C38.0513 3 37.8286 3.21211 37.8286 4.1846C37.8286 4.42872 37.8286 4.67284 37.8286 4.92097C38.4358 4.93297 39.039 4.97299 39.6381 5.04103Z" fill="#001E42"/>
<path d="M49.9484 12.0645C42.9898 5.18504 31.6717 5.18504 24.7132 12.0645C17.7547 18.944 17.7587 30.1336 24.7172 37.013C30.8944 43.1201 40.5044 43.8005 47.4548 39.0621L63.922 57.0231C65.3955 58.4798 67.9943 58.2717 69.7268 56.5629C71.4594 54.85 71.6699 52.2807 70.1924 50.824L51.9197 34.6919C56.8259 27.8124 56.1701 18.2156 49.9484 12.0645ZM46.7504 33.8475C41.5569 38.982 33.1087 38.982 27.9151 33.8475C22.7215 28.7129 22.7215 20.3607 27.9151 15.2261C33.1087 10.0915 41.5569 10.0915 46.7504 15.2261C51.944 20.3647 51.944 28.7169 46.7504 33.8475Z" fill="#001E42"/>
</svg>
