<svg width="76" height="70" viewBox="0 0 76 70" fill="none" xmlns="http://www.w3.org/2000/svg">
<rect width="76" height="70" fill="white"/>
<rect x="13" y="17" width="63" height="53" fill="#00FEFF"/>
<g clip-path="url(#clip0)">
<path d="M32.796 12.3431C32.796 11.918 32.6406 11.4428 32.4158 11.0788C31.9412 10.3091 31.3251 9.62557 30.8561 8.85031C30.4897 8.24455 30.0402 8.00281 29.3491 8.0167C28.2529 8.03615 16.2638 8.04449 15.4812 8.00558C14.4877 7.95557 13.8077 8.23344 13.3637 9.16708C13.089 9.74506 12.6255 10.2313 12.3063 10.7899C12.0316 11.2706 11.6458 11.7985 11.6431 12.307C11.607 24.8168 11.6097 37.3293 11.6181 49.839C11.6181 51.0506 12.0538 51.4674 13.286 51.4674C19.2278 51.4757 25.1668 51.4729 31.1086 51.4646C32.4019 51.4618 32.8126 51.0645 32.8126 49.7724C32.8182 37.2987 32.8182 24.8196 32.796 12.3431ZM14.5404 15.3136C14.5487 14.1271 14.879 13.7686 16.0279 13.7658C20.1492 13.752 24.2676 13.7492 28.3889 13.7631C29.5351 13.7658 29.8958 14.1382 29.9042 15.2969C29.9208 17.342 29.918 19.39 29.9042 21.4351C29.8958 22.6438 29.5434 22.9773 28.3167 22.98C26.2741 22.9884 24.2288 22.9828 22.1862 22.9828C22.1862 22.98 22.1862 22.98 22.1862 22.9773C20.1436 22.9773 18.0983 22.9856 16.0557 22.9745C14.9123 22.9689 14.5515 22.6133 14.5432 21.4545C14.5265 19.4066 14.5293 17.3615 14.5404 15.3136ZM22.1168 49.6334C20.5322 49.5862 19.3138 48.2719 19.3888 46.6824C19.4581 45.1569 20.7542 43.9899 22.3194 44.0454C23.8819 44.0982 25.0808 45.3487 25.0503 46.8881C25.0197 48.458 23.7154 49.6807 22.1168 49.6334ZM28.6886 41.8475C26.5184 41.8586 24.3481 41.8503 22.1807 41.8503C20.0437 41.8503 17.9068 41.8586 15.7698 41.8475C14.6681 41.8419 14.5432 41.6919 14.5376 40.4998C14.5321 39.2355 14.6209 39.1077 15.706 39.1077C20.0465 39.0993 24.3842 39.0993 28.7247 39.1077C29.8098 39.1105 29.9125 39.2522 29.9125 40.4887C29.9069 41.6919 29.7876 41.8419 28.6886 41.8475ZM28.6886 35.7871C26.5184 35.7982 24.3481 35.7899 22.1779 35.7899C20.0076 35.7899 17.8374 35.7565 15.6699 35.8038C14.5543 35.8288 14.5432 35.1758 14.5182 34.3533C14.4932 33.4752 14.7236 33.0362 15.7032 33.0418C20.0437 33.0723 24.3814 33.0445 28.7219 33.0556C29.7959 33.0584 29.9097 33.214 29.9097 34.4367C29.9069 35.6398 29.7959 35.7816 28.6886 35.7871ZM28.8301 29.7434C26.6266 29.7017 24.4231 29.7295 22.2223 29.7295C20.0187 29.7295 17.8152 29.699 15.6144 29.7434C14.6264 29.7629 14.5127 29.2377 14.5265 28.4541C14.5404 27.6872 14.5182 27.0425 15.6061 27.0509C20.0132 27.0842 24.4175 27.0814 28.8246 27.0509C29.8875 27.0425 29.9236 27.6538 29.9236 28.4402C29.9208 29.2182 29.8209 29.7629 28.8301 29.7434Z" fill="#001E42"/>
<path d="M65.9491 51.2367L57.1155 47.5216L51.2098 39.4217H56.4467C57.1987 39.4217 57.8704 38.8715 57.9425 38.1212C58.0258 37.2598 57.3514 36.5374 56.5077 36.5374H38.9543C38.674 36.5374 38.4436 36.3095 38.4436 36.0261V34.0615C38.4436 33.3085 37.8941 32.6361 37.1448 32.5638C36.2845 32.4805 35.5629 33.1557 35.5629 34.0004V36.5374V39.4244V53.079C35.5629 53.5653 35.1688 53.9599 34.6832 53.9599H18.5812C17.5738 53.3208 16.3832 52.9512 15.1038 52.9512C13.8244 52.9512 12.6338 53.3235 11.6264 53.9599H8.86782C8.45154 53.9599 8.11296 53.6209 8.11296 53.2041V33.2668C8.11296 32.875 7.79658 32.5555 7.40249 32.5555H7.05559C3.71142 32.5555 1 35.2731 1 38.6214V59.3061C1 59.7646 1.36911 60.1342 1.82702 60.1342H8.0852V60.162H8.62083C8.96496 63.4381 11.7402 66 15.1038 66C18.4674 66 21.2426 63.4381 21.5868 60.162H45.0626C45.4067 63.4381 48.182 66 51.5456 66C54.9092 66 57.6844 63.4381 58.0285 60.162H66.79C67.4588 60.162 68 59.6201 68 58.9504V53.9571V53.4569C68 51.8369 65.9491 51.2367 65.9491 51.2367ZM17.4433 62.7462C17.4378 62.7489 17.435 62.7545 17.4295 62.7573C17.3518 62.8128 17.2713 62.8656 17.188 62.9157C17.163 62.9296 17.1408 62.9462 17.1159 62.9601C17.0437 63.0018 16.9688 63.0407 16.8938 63.0796C16.8578 63.0991 16.8189 63.1157 16.7828 63.1352C16.7134 63.1657 16.6441 63.1963 16.5747 63.2241C16.5275 63.2435 16.4776 63.2602 16.4276 63.2769C16.3638 63.2991 16.2972 63.3213 16.2333 63.3408C16.175 63.3575 16.114 63.3714 16.0529 63.388C15.9947 63.4019 15.9336 63.4186 15.8725 63.4297C15.7976 63.4436 15.7227 63.4547 15.6478 63.4631C15.5978 63.4686 15.5478 63.4797 15.4979 63.4825C15.3786 63.4936 15.2564 63.4992 15.1343 63.502C15.126 63.502 15.1177 63.502 15.1121 63.502C15.1038 63.502 15.0983 63.502 15.0899 63.502C14.9678 63.502 14.8457 63.4964 14.7236 63.4825C14.6736 63.477 14.6237 63.4686 14.5737 63.4631C14.4988 63.4519 14.4211 63.4436 14.3462 63.4297C14.2851 63.4186 14.2268 63.4019 14.1685 63.388C14.1075 63.3741 14.0464 63.3575 13.9854 63.3408C13.9188 63.3213 13.8549 63.2991 13.7911 63.2769C13.7412 63.2602 13.6912 63.2408 13.644 63.2213C13.5746 63.1935 13.5053 63.163 13.4359 63.1324C13.397 63.1157 13.3609 63.0963 13.3221 63.0768C13.2472 63.0407 13.1722 62.999 13.1001 62.9573C13.0751 62.9434 13.0501 62.9268 13.0251 62.9129C12.9447 62.8629 12.8642 62.8128 12.7865 62.7573C12.7809 62.7545 12.7754 62.7489 12.7698 62.7462C11.7208 61.9931 11.0492 60.751 11.0908 59.3506C11.1546 57.2749 12.842 55.5521 14.9151 55.452C17.2241 55.3409 19.1335 57.186 19.1335 59.4728C19.1251 60.8233 18.4591 62.0154 17.4433 62.7462ZM40.9053 47.894C40.5473 47.894 40.2559 47.6022 40.2559 47.2437V41.3001C40.2559 40.9416 40.5473 40.6499 40.9053 40.6499H48.2541C48.465 40.6499 48.6621 40.7527 48.7842 40.925L52.972 46.8686C53.2745 47.2993 52.9693 47.894 52.442 47.894H40.9053ZM53.8823 62.7462C53.8768 62.7489 53.874 62.7517 53.8684 62.7545C53.7907 62.8101 53.7075 62.8629 53.627 62.9129C53.602 62.9268 53.5798 62.9434 53.5548 62.9573C53.4827 62.999 53.4078 63.0379 53.3328 63.0768C53.2967 63.0963 53.2579 63.1129 53.2218 63.1296C53.1524 63.1602 53.0831 63.1907 53.0137 63.2185C52.9665 63.238 52.9165 63.2547 52.8666 63.2713C52.8028 63.2936 52.7361 63.3158 52.6695 63.3352C52.6113 63.3519 52.5502 63.3658 52.4892 63.3825C52.4281 63.3964 52.3698 63.413 52.3088 63.4242C52.2338 63.4381 52.1589 63.4492 52.084 63.4575C52.034 63.4631 51.9841 63.4742 51.9341 63.477C51.8148 63.4881 51.6927 63.4936 51.5705 63.4964C51.5622 63.4964 51.5539 63.4964 51.5456 63.4964C51.5372 63.4964 51.5317 63.4964 51.5234 63.4964C51.4013 63.4964 51.2791 63.4908 51.157 63.477C51.1071 63.4714 51.0571 63.4631 51.0072 63.4575C50.9322 63.4464 50.8545 63.4381 50.7796 63.4242C50.7185 63.413 50.6603 63.3964 50.602 63.3825C50.5409 63.3686 50.4799 63.3519 50.4188 63.3352C50.3522 63.3158 50.2884 63.2936 50.2245 63.2713C50.1746 63.2547 50.1246 63.2352 50.0747 63.2158C50.0053 63.188 49.9359 63.1574 49.8665 63.1268C49.8277 63.1102 49.7888 63.0907 49.7528 63.0713C49.6778 63.0351 49.6057 62.9962 49.5335 62.9546C49.5085 62.9407 49.4836 62.924 49.4586 62.9101C49.3781 62.8601 49.2976 62.8101 49.2199 62.7545C49.2144 62.7489 49.2088 62.7462 49.2005 62.7406C48.1542 61.9876 47.4798 60.7455 47.5215 59.345C47.5853 57.2693 49.2726 55.5465 51.3458 55.4465C53.6548 55.3353 55.5641 57.1804 55.5641 59.4673C55.5669 60.8233 54.9008 62.0154 53.8823 62.7462ZM65.7049 56.344C64.9805 56.344 64.3922 55.5549 64.3922 54.5795C64.3922 53.607 64.9805 52.815 65.7049 52.815C66.4292 52.815 67.0176 53.6042 67.0176 54.5795C67.0176 55.5521 66.4292 56.344 65.7049 56.344Z" fill="#001E42"/>
</g>
<defs>
<clipPath id="clip0">
<rect width="67" height="58" fill="white" transform="translate(1 8)"/>
</clipPath>
</defs>
</svg>
