<svg width="180" height="60" viewBox="0 0 180 60" fill="none" xmlns="http://www.w3.org/2000/svg">
<path d="M0 40.3136V1.10892H13.4067V40.3136H0Z" fill="#00FEFF"/>
<path d="M40.5031 12.2355V40.3074H27.2095V12.2355H17.4861V1.10892H50.2202V12.2417H40.5031V12.2355Z" fill="#00FEFF"/>
<path d="M47.2595 29.2929V19.7674H62.6775V29.2929H47.2595Z" fill="#00FEFF"/>
<path d="M80.3332 41.4163C77.2031 41.4163 74.161 40.8805 71.2006 39.809C68.2402 38.7374 65.7324 37.2983 63.6833 35.4917L71.7852 26.7449C72.7531 27.8164 74.0165 28.7198 75.5815 29.4611C77.1466 30.2025 78.7116 30.57 80.2767 30.57C82.2503 30.57 83.2371 29.9595 83.2371 28.7447C83.2371 28.0469 82.8097 27.4738 81.9549 27.0252C81.1001 26.5829 79.1956 25.8789 76.2541 24.9195C73.0862 23.8854 70.591 22.5023 68.7682 20.7642C66.9454 19.0323 66.0278 16.5902 66.0278 13.4566C66.0278 11.1328 66.518 9.07071 67.5111 7.28273C68.4979 5.49476 69.8116 4.08057 71.452 3.04641C73.0925 2.01225 74.8524 1.24598 76.7317 0.747586C78.6111 0.249195 80.5784 0 82.6274 0C85.2735 0 87.9448 0.51708 90.6412 1.55124C93.3439 2.5854 95.6946 4.00582 97.706 5.81248L89.4407 14.173C88.5859 13.1388 87.5111 12.3165 86.2289 11.706C84.9467 11.0954 83.7399 10.7902 82.6274 10.7902C80.4652 10.7902 79.3842 11.382 79.3842 12.5594C79.3842 13.1139 79.6419 13.5313 80.1635 13.8054C80.6852 14.0795 81.7286 14.4783 83.2937 14.9953C84.3747 15.3629 85.2295 15.6495 85.8644 15.8551C86.4992 16.0606 87.3477 16.3784 88.4036 16.8269C89.4659 17.2692 90.3207 17.6929 90.9744 18.0978C91.628 18.5028 92.3508 19.0385 93.1554 19.7051C93.9536 20.3717 94.5821 21.0508 95.0284 21.7548C95.4747 22.4587 95.8581 23.2935 96.1723 24.2716C96.4866 25.2497 96.6437 26.2901 96.6437 27.399C96.6437 31.8285 95.0221 35.2736 91.7852 37.7282C88.5482 40.189 84.7267 41.4163 80.3332 41.4163Z" fill="#001E42"/>
<path d="M118.825 27.6856H115.079V40.3136H101.835V1.10892H118.818C120.981 1.10892 122.973 1.3332 124.796 1.77552C126.619 2.21784 128.322 2.92182 129.906 3.88122C131.49 4.84063 132.734 6.20497 133.652 7.98049C134.563 9.74978 135.022 11.8555 135.022 14.2914C135.022 16.6151 134.563 18.6647 133.652 20.4403C132.741 22.2095 131.509 23.6175 129.962 24.6454C128.416 25.6796 126.7 26.4459 124.821 26.9443C122.948 27.4364 120.949 27.6856 118.825 27.6856ZM117.876 11.3509H115.085V17.6617H117.876C118.994 17.6617 119.944 17.3876 120.723 16.8332C121.502 16.2787 121.898 15.4688 121.898 14.3973C121.898 12.3663 120.56 11.3509 117.876 11.3509Z" fill="#001E42"/>
<path d="M163.683 40.3136L153.124 24.7015H153.011V40.3136H140.05V1.10892H152.954V15.5623H153.067L163.627 1.10892H179.271L164.412 19.051L180 40.3136H163.683Z" fill="#001E42"/>
<path d="M4.29918 51.2719L3.58894 52.0444C3.4758 51.8887 3.31238 51.7641 3.09868 51.6644C2.88498 51.5647 2.67756 51.5211 2.46386 51.5211C2.18102 51.5211 1.9296 51.5897 1.70962 51.733C1.48963 51.87 1.38278 52.0818 1.38278 52.3559C1.38278 52.493 1.40792 52.6114 1.4582 52.7048C1.50849 52.7983 1.59648 52.8855 1.7159 52.9602C1.84161 53.035 1.95475 53.0911 2.06788 53.1347C2.17473 53.1721 2.33815 53.2281 2.55185 53.2967C2.75299 53.359 2.92269 53.415 3.0484 53.4586C3.18039 53.5022 3.33124 53.577 3.51351 53.6767C3.69579 53.7764 3.84035 53.8823 3.9472 54.0006C4.05406 54.119 4.14834 54.2623 4.22376 54.4492C4.29918 54.6361 4.34318 54.8417 4.34318 55.0722C4.34318 55.6952 4.12948 56.1749 3.70836 56.5113C3.28096 56.8477 2.75299 57.0159 2.11188 57.0159C1.70333 57.0159 1.30735 56.9411 0.930233 56.7916C0.546826 56.6296 0.238844 56.4178 0 56.1375L0.779384 55.4148C0.930233 55.6142 1.13136 55.7762 1.37649 55.9008C1.62791 56.0253 1.87304 56.0876 2.11817 56.0876C2.41358 56.0876 2.67128 56.0129 2.89126 55.8634C3.11125 55.7139 3.22439 55.4896 3.22439 55.1843C3.22439 55.0784 3.21182 54.9912 3.18039 54.904C3.16153 54.823 3.10497 54.7482 3.02954 54.6797C2.95412 54.6112 2.88498 54.5551 2.82841 54.5115C2.76556 54.4679 2.66499 54.4243 2.51414 54.3682C2.36958 54.3121 2.26273 54.2747 2.19987 54.2498C2.13702 54.2249 2.01131 54.1875 1.81647 54.1315C1.59648 54.0629 1.40792 53.9944 1.25079 53.9196C1.09365 53.8449 0.936518 53.7452 0.766814 53.6144C0.603394 53.4836 0.477687 53.3216 0.389692 53.116C0.301697 52.9104 0.2577 52.6737 0.2577 52.4058C0.2577 51.8264 0.477687 51.3841 0.917662 51.0788C1.35764 50.7736 1.88561 50.6178 2.50157 50.6178C2.82213 50.6178 3.14896 50.6739 3.46952 50.786C3.79636 50.8981 4.07291 51.0601 4.29918 51.2719Z" fill="#001E42"/>
<path d="M7.16528 56.8539V50.7736H8.25894V56.8539H7.16528Z" fill="#001E42"/>
<path d="M11.3389 56.8539V50.7736H13.0422L14.6387 55.0909H14.6638L16.2414 50.7736H17.9573V56.8539H16.8763V51.9697H16.8574L14.9969 56.8539H14.2364L12.4011 51.9697H12.3822V56.8539H11.3389Z" fill="#001E42"/>
<path d="M21.0435 56.8539V50.7736H23.0422C24.5821 50.7736 25.3552 51.3592 25.3552 52.5366C25.3552 53.1658 25.1352 53.6268 24.6952 53.9134C24.2553 54.2 23.6833 54.3433 22.9731 54.3433H22.1308V56.8601H21.0435V56.8539ZM22.1371 53.4275H22.8976C23.8027 53.4275 24.2553 53.1284 24.2553 52.5366C24.2553 52.2127 24.1359 51.9884 23.897 51.87C23.6582 51.7516 23.3376 51.6893 22.9291 51.6893H22.1308V53.4275H22.1371Z" fill="#001E42"/>
<path d="M28.0579 56.8539V50.7736H29.1515V55.8883H31.7599V56.8477H28.0579V56.8539Z" fill="#001E42"/>
<path d="M34.2175 56.8539V50.7736H38.2779V51.7205H35.3049V53.2655H38.1207V54.1751H35.3049V55.8945H38.435V56.8539H34.2175Z" fill="#001E42"/>
<path d="M45.1353 56.8539V50.7736H47.134C48.6739 50.7736 49.447 51.3592 49.447 52.5366C49.447 53.1658 49.227 53.6268 48.787 53.9134C48.3471 54.2 47.7751 54.3433 47.0649 54.3433H46.2226V56.8601H45.1353V56.8539ZM46.2289 53.4275H46.9894C47.8945 53.4275 48.3471 53.1284 48.3471 52.5366C48.3471 52.2127 48.2276 51.9884 47.9888 51.87C47.75 51.7516 47.4294 51.6893 47.0209 51.6893H46.2226V53.4275H46.2289Z" fill="#001E42"/>
<path d="M51.8542 53.795C51.8542 52.8356 52.1622 52.0631 52.7782 51.4838C53.3942 50.9044 54.1798 50.6178 55.1415 50.6178C56.1094 50.6178 56.9077 50.9044 57.5236 51.4838C58.1396 52.0631 58.4539 52.8294 58.4539 53.795C58.4539 54.742 58.1459 55.5083 57.5236 56.1063C56.9014 56.7044 56.1094 57.0034 55.1478 57.0034C54.1924 57.0034 53.4067 56.7044 52.7908 56.1063C52.1685 55.5145 51.8542 54.742 51.8542 53.795ZM53.0422 53.795C53.0422 54.4492 53.237 54.985 53.633 55.4024C54.0227 55.826 54.5318 56.0316 55.1478 56.0316C55.77 56.0316 56.2791 55.8198 56.6751 55.4024C57.0648 54.9787 57.2659 54.443 57.2659 53.795C57.2659 53.1596 57.0711 52.6301 56.6814 52.2064C56.2917 51.7828 55.7826 51.571 55.1541 51.571C54.5318 51.571 54.0227 51.7828 53.633 52.2064C53.237 52.6301 53.0422 53.1596 53.0422 53.795Z" fill="#001E42"/>
<path d="M62.4071 56.8539L60.6157 50.7736H61.8099L62.9979 55.2404H63.0167L64.3681 50.7736H65.4932L66.8194 55.2404H66.8382L68.0513 50.7736H69.2141L67.4228 56.8539H66.3668L64.9275 52.2936H64.9086L63.4693 56.8539H62.4071Z" fill="#001E42"/>
<path d="M71.6716 56.8539V50.7736H75.732V51.7205H72.759V53.2655H75.5748V54.1751H72.759V55.8945H75.8891V56.8539H71.6716Z" fill="#001E42"/>
<path d="M78.6865 56.8539V50.7736H80.8173C81.2258 50.7736 81.5966 50.8296 81.9235 50.9355C82.2503 51.0414 82.5269 51.2283 82.7469 51.5024C82.9668 51.7766 83.08 52.113 83.08 52.5179C83.08 52.9478 82.9543 53.3029 82.7091 53.5895C82.4577 53.8698 82.1183 54.0629 81.6783 54.1626L83.3125 56.8601H81.9926L80.5721 54.2872H79.7739V56.8601H78.6865V56.8539ZM79.7802 53.3901H80.6727C81.5526 53.3901 81.9926 53.0973 81.9926 52.5055C81.9926 52.2064 81.8732 51.9946 81.6344 51.87C81.3955 51.7454 81.1064 51.6831 80.767 51.6831H79.7802V53.3901Z" fill="#001E42"/>
<path d="M89.4722 53.795C89.4722 52.8356 89.7802 52.0631 90.3961 51.4838C91.0121 50.9044 91.7977 50.6178 92.7594 50.6178C93.7273 50.6178 94.5256 50.9044 95.1415 51.4838C95.7575 52.0631 96.0718 52.8294 96.0718 53.795C96.0718 54.742 95.7638 55.5083 95.1415 56.1063C94.5193 56.7044 93.7273 57.0034 92.7657 57.0034C91.8103 57.0034 91.0246 56.7044 90.4087 56.1063C89.7801 55.5145 89.4722 54.742 89.4722 53.795ZM90.6601 53.795C90.6601 54.4492 90.8549 54.985 91.2509 55.4024C91.6406 55.826 92.1497 56.0316 92.7657 56.0316C93.3879 56.0316 93.8971 55.8198 94.293 55.4024C94.6827 54.9787 94.8839 54.443 94.8839 53.795C94.8839 53.1596 94.689 52.6301 94.2993 52.2064C93.9096 51.7828 93.4005 51.571 92.772 51.571C92.1497 51.571 91.6406 51.7828 91.2509 52.2064C90.8549 52.6301 90.6601 53.1596 90.6601 53.795Z" fill="#001E42"/>
<path d="M98.8562 56.8539V50.7736H102.816V51.7205H99.9499V53.3839H102.653V54.2934H99.9499V56.8539H98.8562Z" fill="#001E42"/>
<path d="M109.447 56.8539V50.7736H110.541V53.4026H110.566L113.13 50.7736H114.601L111.735 53.5832L114.796 56.8539H113.262L110.566 53.8075H110.541V56.8539H109.447Z" fill="#001E42"/>
<path d="M117.153 56.8539V50.7736H118.598L121.446 55.3276H121.465V50.7736H122.558V56.8539H121.169L118.259 52.1566H118.24V56.8539H117.153Z" fill="#001E42"/>
<path d="M125.343 53.795C125.343 52.8356 125.651 52.0631 126.266 51.4838C126.882 50.9044 127.668 50.6178 128.63 50.6178C129.598 50.6178 130.396 50.9044 131.012 51.4838C131.628 52.0631 131.942 52.8294 131.942 53.795C131.942 54.742 131.634 55.5083 131.012 56.1063C130.39 56.7044 129.598 57.0034 128.636 57.0034C127.681 57.0034 126.895 56.7044 126.279 56.1063C125.657 55.5145 125.343 54.742 125.343 53.795ZM126.53 53.795C126.53 54.4492 126.725 54.985 127.121 55.4024C127.511 55.826 128.02 56.0316 128.636 56.0316C129.258 56.0316 129.767 55.8198 130.163 55.4024C130.553 54.9787 130.754 54.443 130.754 53.795C130.754 53.1596 130.559 52.6301 130.17 52.2064C129.78 51.7828 129.271 51.571 128.642 51.571C128.02 51.571 127.511 51.7828 127.121 52.2064C126.725 52.6301 126.53 53.1596 126.53 53.795Z" fill="#001E42"/>
<path d="M135.896 56.8539L134.104 50.7736H135.298L136.486 55.2404H136.505L137.857 50.7736H138.982L140.308 55.2404H140.327L141.54 50.7736H142.703L140.911 56.8539H139.855L138.416 52.2936H138.397L136.958 56.8539H135.896Z" fill="#001E42"/>
<path d="M145.16 56.8539V50.7736H146.254V55.8883H148.862V56.8477H145.16V56.8539Z" fill="#001E42"/>
<path d="M151.32 56.8539V50.7736H155.38V51.7205H152.407V53.2655H155.223V54.1751H152.407V55.8945H155.537V56.8539H151.32Z" fill="#001E42"/>
<path d="M158.334 56.8539V50.7736H160.509C160.937 50.7736 161.339 50.8296 161.722 50.9355C162.106 51.0414 162.464 51.2096 162.797 51.4339C163.13 51.6582 163.4 51.9759 163.602 52.3871C163.803 52.7983 163.897 53.2717 163.897 53.8137C163.897 54.3246 163.796 54.7794 163.602 55.1781C163.4 55.5768 163.136 55.9007 162.803 56.1375C162.47 56.3742 162.112 56.5549 161.722 56.6733C161.333 56.7916 160.93 56.8539 160.515 56.8539H158.334ZM159.428 55.907H160.34C160.578 55.907 160.805 55.8883 161.018 55.8447C161.232 55.8073 161.452 55.7325 161.666 55.6329C161.879 55.5332 162.062 55.4086 162.219 55.2528C162.37 55.1033 162.495 54.8977 162.59 54.6548C162.684 54.4056 162.734 54.1252 162.734 53.8075C162.734 52.3996 161.936 51.6956 160.346 51.6956H159.434V55.907H159.428Z" fill="#001E42"/>
<path d="M172.055 53.3839V56.5362C171.389 56.8539 170.622 57.0097 169.742 57.0097C168.755 57.0097 167.951 56.7106 167.322 56.1188C166.7 55.5207 166.386 54.7482 166.386 53.8013C166.386 52.8481 166.7 52.0756 167.329 51.4962C167.957 50.9168 168.749 50.624 169.717 50.624C170.188 50.624 170.635 50.6925 171.049 50.8296C171.464 50.9667 171.797 51.1536 172.049 51.3903L171.295 52.2002C171.131 52.0257 170.911 51.8762 170.628 51.7579C170.346 51.6395 170.044 51.5834 169.73 51.5834C169.095 51.5834 168.579 51.7952 168.19 52.2189C167.8 52.6425 167.599 53.172 167.599 53.8075C167.599 54.4679 167.794 55.0036 168.19 55.421C168.586 55.8384 169.114 56.0503 169.78 56.0503C170.245 56.0503 170.653 55.9817 170.999 55.8384V54.2934H169.711V53.4026H172.055V53.3839Z" fill="#001E42"/>
<path d="M175.116 56.8539V50.7736H179.177V51.7205H176.204V53.2655H179.019V54.1751H176.204V55.8945H179.334V56.8539H175.116Z" fill="#001E42"/>
<path d="M179.334 59.377H0V60H179.334V59.377Z" fill="#001E42"/>
</svg>
