<svg width="126" height="42" viewBox="0 0 126 42" fill="none" xmlns="http://www.w3.org/2000/svg">
<path d="M0 28.2195V0.776245H9.38467V28.2195H0Z" fill="white"/>
<path d="M28.352 8.56485V28.2151H19.0465V8.56485H12.2401V0.776245H35.154V8.56921H28.352V8.56485Z" fill="white"/>
<path d="M33.0817 20.505V13.8372H43.8743V20.505H33.0817Z" fill="white"/>
<path d="M56.2332 28.9914C54.0421 28.9914 51.9126 28.6164 49.8404 27.8663C47.7681 27.1162 46.0126 26.1088 44.5783 24.8442L50.2495 18.7214C50.9271 19.4715 51.8114 20.1038 52.907 20.6228C54.0025 21.1417 55.098 21.399 56.1936 21.399C57.5751 21.399 58.2659 20.9717 58.2659 20.1213C58.2659 19.6329 57.9667 19.2317 57.3683 18.9177C56.77 18.608 55.4368 18.1153 53.3777 17.4437C51.1603 16.7198 49.4136 15.7516 48.1377 14.5349C46.8617 13.3226 46.2194 11.6131 46.2194 9.41959C46.2194 7.79296 46.5625 6.3495 47.2577 5.09791C47.9485 3.84633 48.868 2.8564 50.0163 2.13249C51.1647 1.40858 52.3966 0.872184 53.7121 0.52331C55.0277 0.174437 56.4048 0 57.8391 0C59.6914 0 61.5613 0.361956 63.4488 1.08587C65.3407 1.80978 66.9862 2.80407 68.3941 4.06874L62.6084 9.92109C62.0101 9.19718 61.2577 8.62154 60.3601 8.19417C59.4626 7.7668 58.6178 7.55311 57.8391 7.55311C56.3256 7.55311 55.5688 7.9674 55.5688 8.79161C55.5688 9.17973 55.7492 9.47192 56.1144 9.6638C56.4796 9.85568 57.2099 10.1348 58.3055 10.4967C59.0622 10.754 59.6606 10.9546 60.105 11.0985C60.5493 11.2424 61.1433 11.4649 61.8825 11.7788C62.626 12.0885 63.2244 12.385 63.682 12.6685C64.1395 12.9519 64.6455 13.327 65.2087 13.7936C65.7674 14.2602 66.2074 14.7355 66.5198 15.2283C66.8322 15.7211 67.1006 16.3055 67.3205 16.9901C67.5405 17.6748 67.6505 18.4031 67.6505 19.1793C67.6505 22.2799 66.5154 24.6915 64.2495 26.4097C61.9837 28.1323 59.3086 28.9914 56.2332 28.9914Z" fill="#00FEFF"/>
<path d="M83.1773 19.3799H80.555V28.2195H71.2847V0.776245H83.1729C84.6864 0.776245 86.0811 0.933238 87.357 1.24286C88.633 1.55249 89.8253 2.04527 90.934 2.71685C92.0428 3.38844 92.9139 4.34348 93.5563 5.58634C94.1942 6.82484 94.5154 8.29883 94.5154 10.004C94.5154 11.6306 94.1942 13.0653 93.5563 14.3082C92.9183 15.5467 92.056 16.5322 90.9736 17.2518C89.8913 17.9757 88.6901 18.5121 87.3746 18.861C86.0635 19.2055 84.6644 19.3799 83.1773 19.3799ZM82.5129 7.9456H80.5594V12.3632H82.5129C83.2961 12.3632 83.9604 12.1713 84.506 11.7832C85.0516 11.3951 85.3287 10.8282 85.3287 10.0781C85.3287 8.65643 84.3916 7.9456 82.5129 7.9456Z" fill="#00FEFF"/>
<path d="M114.578 28.2195L107.187 17.291H107.108V28.2195H98.0352V0.776245H107.068V10.8936H107.147L114.539 0.776245H125.49L115.089 13.3357L126 28.2195H114.578Z" fill="#00FEFF"/>
<path d="M3.00943 35.8904L2.51226 36.4311C2.43306 36.3221 2.31867 36.2349 2.16908 36.1651C2.01948 36.0953 1.87429 36.0648 1.7247 36.0648C1.52671 36.0648 1.35072 36.1128 1.19673 36.2131C1.04274 36.309 0.967945 36.4573 0.967945 36.6492C0.967945 36.7451 0.985544 36.828 1.02074 36.8934C1.05594 36.9588 1.11754 37.0198 1.20113 37.0722C1.28913 37.1245 1.36832 37.1638 1.44752 37.1943C1.52231 37.2204 1.63671 37.2597 1.7863 37.3077C1.92709 37.3513 2.04588 37.3905 2.13388 37.421C2.22627 37.4516 2.33187 37.5039 2.45946 37.5737C2.58705 37.6435 2.68825 37.7176 2.76304 37.8004C2.83784 37.8833 2.90383 37.9836 2.95663 38.1144C3.00943 38.2453 3.04023 38.3892 3.04023 38.5505C3.04023 38.9866 2.89064 39.3224 2.59585 39.5579C2.29667 39.7934 1.92709 39.9111 1.47832 39.9111C1.19233 39.9111 0.915148 39.8588 0.651163 39.7541C0.382778 39.6408 0.16719 39.4925 0 39.2962L0.545569 38.7904C0.651163 38.9299 0.791955 39.0433 0.963545 39.1305C1.13954 39.2177 1.31113 39.2614 1.48272 39.2614C1.6895 39.2614 1.86989 39.209 2.02388 39.1044C2.17788 38.9997 2.25707 38.8427 2.25707 38.629C2.25707 38.5549 2.24827 38.4938 2.22627 38.4328C2.21307 38.3761 2.17348 38.3238 2.12068 38.2758C2.06788 38.2278 2.01948 38.1886 1.97989 38.158C1.93589 38.1275 1.86549 38.097 1.7599 38.0577C1.65871 38.0185 1.58391 37.9923 1.53991 37.9749C1.49591 37.9574 1.40792 37.9313 1.27153 37.892C1.11754 37.8441 0.985544 37.7961 0.87555 37.7438C0.765556 37.6914 0.655563 37.6216 0.536769 37.5301C0.422376 37.4385 0.334381 37.3251 0.272784 37.1812C0.211188 37.0373 0.18039 36.8716 0.18039 36.684C0.18039 36.2785 0.334381 35.9689 0.642363 35.7552C0.950346 35.5415 1.31992 35.4325 1.7511 35.4325C1.97549 35.4325 2.20427 35.4717 2.42866 35.5502C2.65745 35.6287 2.85104 35.7421 3.00943 35.8904Z" fill="#00FEFF"/>
<path d="M5.01572 39.7977V35.5415H5.78127V39.7977H5.01572Z" fill="#00FEFF"/>
<path d="M7.93715 39.7977V35.5415H9.12948L10.247 38.5636H10.2646L11.369 35.5415H12.5701V39.7977H11.8133V36.3788H11.8001L10.4978 39.7977H9.96543L8.68071 36.3788H8.66751V39.7977H7.93715Z" fill="#00FEFF"/>
<path d="M14.7304 39.7977V35.5415H16.1295C17.2074 35.5415 17.7486 35.9514 17.7486 36.7756C17.7486 37.2161 17.5946 37.5388 17.2866 37.7394C16.9786 37.94 16.5783 38.0403 16.0811 38.0403H15.4915V39.8021H14.7304V39.7977ZM15.4959 37.3992H16.0283C16.6619 37.3992 16.9786 37.1899 16.9786 36.7756C16.9786 36.5489 16.895 36.3919 16.7278 36.309C16.5607 36.2261 16.3363 36.1825 16.0503 36.1825H15.4915V37.3992H15.4959Z" fill="#00FEFF"/>
<path d="M19.6405 39.7977V35.5415H20.406V39.1218H22.2319V39.7934H19.6405V39.7977Z" fill="#00FEFF"/>
<path d="M23.9522 39.7977V35.5415H26.7945V36.2043H24.7134V37.2858H26.6845V37.9225H24.7134V39.1262H26.9045V39.7977H23.9522Z" fill="#00FEFF"/>
<path d="M31.5946 39.7977V35.5415H32.9937C34.0717 35.5415 34.6128 35.9514 34.6128 36.7756C34.6128 37.2161 34.4588 37.5388 34.1509 37.7394C33.8429 37.94 33.4425 38.0403 32.9453 38.0403H32.3558V39.8021H31.5946V39.7977ZM32.3602 37.3992H32.8925C33.5261 37.3992 33.8429 37.1899 33.8429 36.7756C33.8429 36.5489 33.7593 36.3919 33.5921 36.309C33.4249 36.2261 33.2005 36.1825 32.9145 36.1825H32.3558V37.3992H32.3602Z" fill="#00FEFF"/>
<path d="M36.2979 37.6565C36.2979 36.985 36.5135 36.4442 36.9447 36.0386C37.3759 35.6331 37.9258 35.4325 38.599 35.4325C39.2766 35.4325 39.8353 35.6331 40.2665 36.0386C40.6977 36.4442 40.9177 36.9806 40.9177 37.6565C40.9177 38.3194 40.7021 38.8558 40.2665 39.2744C39.8309 39.6931 39.2766 39.9024 38.6034 39.9024C37.9346 39.9024 37.3847 39.6931 36.9535 39.2744C36.5179 38.8601 36.2979 38.3194 36.2979 37.6565ZM37.1295 37.6565C37.1295 38.1144 37.2659 38.4895 37.5431 38.7817C37.8159 39.0782 38.1722 39.2221 38.6034 39.2221C39.039 39.2221 39.3954 39.0738 39.6725 38.7817C39.9453 38.4851 40.0861 38.1101 40.0861 37.6565C40.0861 37.2117 39.9497 36.841 39.6769 36.5445C39.4042 36.248 39.0478 36.0997 38.6078 36.0997C38.1722 36.0997 37.8159 36.248 37.5431 36.5445C37.2659 36.841 37.1295 37.2117 37.1295 37.6565Z" fill="#00FEFF"/>
<path d="M43.6851 39.7977L42.4312 35.5415H43.2671L44.0987 38.6683H44.1119L45.0578 35.5415H45.8454L46.7737 38.6683H46.7869L47.6361 35.5415H48.45L47.1961 39.7977H46.457L45.4494 36.6055H45.4362L44.4287 39.7977H43.6851Z" fill="#00FEFF"/>
<path d="M50.1703 39.7977V35.5415H53.0126V36.2043H50.9315V37.2858H52.9026V37.9225H50.9315V39.1262H53.1226V39.7977H50.1703Z" fill="#00FEFF"/>
<path d="M55.0805 39.7977V35.5415H56.572C56.858 35.5415 57.1175 35.5807 57.3463 35.6549C57.5751 35.729 57.7687 35.8598 57.9227 36.0517C58.0767 36.2436 58.1559 36.4791 58.1559 36.7625C58.1559 37.0634 58.0679 37.312 57.8963 37.5126C57.7203 37.7089 57.4827 37.844 57.1747 37.9138L58.3187 39.8021H57.3947L56.4004 38.001H55.8416V39.8021H55.0805V39.7977ZM55.846 37.3731H56.4708C57.0867 37.3731 57.3947 37.1681 57.3947 36.7538C57.3947 36.5445 57.3111 36.3962 57.1439 36.309C56.9768 36.2218 56.7744 36.1782 56.5368 36.1782H55.846V37.3731Z" fill="#00FEFF"/>
<path d="M62.6304 37.6565C62.6304 36.985 62.846 36.4442 63.2772 36.0386C63.7084 35.6331 64.2583 35.4325 64.9315 35.4325C65.6091 35.4325 66.1678 35.6331 66.599 36.0386C67.0302 36.4442 67.2502 36.9806 67.2502 37.6565C67.2502 38.3194 67.0346 38.8558 66.599 39.2744C66.1634 39.6931 65.6091 39.9024 64.9359 39.9024C64.2671 39.9024 63.7172 39.6931 63.286 39.2744C62.846 38.8601 62.6304 38.3194 62.6304 37.6565ZM63.462 37.6565C63.462 38.1144 63.5984 38.4895 63.8756 38.7817C64.1483 39.0782 64.5047 39.2221 64.9359 39.2221C65.3715 39.2221 65.7278 39.0738 66.005 38.7817C66.2778 38.4851 66.4186 38.1101 66.4186 37.6565C66.4186 37.2117 66.2822 36.841 66.0094 36.5445C65.7366 36.248 65.3803 36.0997 64.9403 36.0997C64.5047 36.0997 64.1483 36.248 63.8756 36.5445C63.5984 36.841 63.462 37.2117 63.462 37.6565Z" fill="#00FEFF"/>
<path d="M69.1993 39.7977V35.5415H71.9711V36.2043H69.9648V37.3687H71.8567V38.0054H69.9648V39.7977H69.1993Z" fill="#00FEFF"/>
<path d="M76.6128 39.7977V35.5415H77.3784V37.3818H77.396L79.1911 35.5415H80.2206L78.2143 37.5083L80.357 39.7977H79.2835L77.396 37.6652H77.3784V39.7977H76.6128Z" fill="#00FEFF"/>
<path d="M82.0069 39.7977V35.5415H83.0189L85.0119 38.7293H85.0251V35.5415H85.7907V39.7977H84.8184L82.7813 36.5096H82.7681V39.7977H82.0069Z" fill="#00FEFF"/>
<path d="M87.7398 37.6565C87.7398 36.985 87.9554 36.4442 88.3866 36.0386C88.8177 35.6331 89.3677 35.4325 90.0409 35.4325C90.7184 35.4325 91.2772 35.6331 91.7084 36.0386C92.1396 36.4442 92.3595 36.9806 92.3595 37.6565C92.3595 38.3194 92.144 38.8558 91.7084 39.2744C91.2728 39.6931 90.7184 39.9024 90.0453 39.9024C89.3765 39.9024 88.8265 39.6931 88.3954 39.2744C87.9598 38.8601 87.7398 38.3194 87.7398 37.6565ZM88.5714 37.6565C88.5714 38.1144 88.7077 38.4895 88.9849 38.7817C89.2577 39.0782 89.6141 39.2221 90.0453 39.2221C90.4808 39.2221 90.8372 39.0738 91.1144 38.7817C91.3872 38.4851 91.528 38.1101 91.528 37.6565C91.528 37.2117 91.3916 36.841 91.1188 36.5445C90.846 36.248 90.4896 36.0997 90.0497 36.0997C89.6141 36.0997 89.2577 36.248 88.9849 36.5445C88.7077 36.841 88.5714 37.2117 88.5714 37.6565Z" fill="#00FEFF"/>
<path d="M95.127 39.7977L93.873 35.5415H94.709L95.5405 38.6683H95.5537L96.4997 35.5415H97.2873L98.2156 38.6683H98.2288L99.078 35.5415H99.8919L98.638 39.7977H97.8988L96.8913 36.6055H96.8781L95.8705 39.7977H95.127Z" fill="#00FEFF"/>
<path d="M101.612 39.7977V35.5415H102.378V39.1218H104.204V39.7934H101.612V39.7977Z" fill="#00FEFF"/>
<path d="M105.924 39.7977V35.5415H108.766V36.2043H106.685V37.2858H108.656V37.9225H106.685V39.1262H108.876V39.7977H105.924Z" fill="#00FEFF"/>
<path d="M110.834 39.7977V35.5415H112.356C112.656 35.5415 112.937 35.5807 113.206 35.6549C113.474 35.729 113.725 35.8467 113.958 36.0037C114.191 36.1607 114.38 36.3831 114.521 36.671C114.662 36.9588 114.728 37.2902 114.728 37.6696C114.728 38.0272 114.657 38.3456 114.521 38.6247C114.38 38.9037 114.196 39.1305 113.962 39.2962C113.729 39.4619 113.478 39.5884 113.206 39.6713C112.933 39.7541 112.651 39.7977 112.361 39.7977H110.834ZM111.6 39.1349H112.238C112.405 39.1349 112.563 39.1218 112.713 39.0913C112.862 39.0651 113.016 39.0128 113.166 38.943C113.316 38.8732 113.443 38.786 113.553 38.677C113.659 38.5723 113.747 38.4284 113.813 38.2583C113.879 38.0839 113.914 37.8877 113.914 37.6652C113.914 36.6797 113.355 36.1869 112.242 36.1869H111.604V39.1349H111.6Z" fill="#00FEFF"/>
<path d="M120.439 37.3687V39.5753C119.972 39.7977 119.436 39.9068 118.82 39.9068C118.129 39.9068 117.566 39.6974 117.126 39.2831C116.69 38.8645 116.47 38.3237 116.47 37.6609C116.47 36.9937 116.69 36.4529 117.13 36.0473C117.57 35.6418 118.124 35.4368 118.802 35.4368C119.132 35.4368 119.444 35.4848 119.735 35.5807C120.025 35.6767 120.258 35.8075 120.434 35.9732L119.906 36.5401C119.792 36.418 119.638 36.3134 119.44 36.2305C119.242 36.1476 119.031 36.1084 118.811 36.1084C118.366 36.1084 118.006 36.2567 117.733 36.5532C117.46 36.8498 117.319 37.2204 117.319 37.6652C117.319 38.1275 117.456 38.5025 117.733 38.7947C118.01 39.0869 118.38 39.2352 118.846 39.2352C119.172 39.2352 119.458 39.1872 119.7 39.0869V38.0054H118.798V37.3818H120.439V37.3687Z" fill="#00FEFF"/>
<path d="M122.581 39.7977V35.5415H125.424V36.2043H123.343V37.2858H125.314V37.9225H123.343V39.1262H125.534V39.7977H122.581Z" fill="#00FEFF"/>
<path d="M125.534 41.5639H0V42H125.534V41.5639Z" fill="#00FEFF"/>
</svg>
