<svg width="164" height="197" viewBox="0 0 164 197" fill="none" xmlns="http://www.w3.org/2000/svg">
<path d="M114.37 61.1113C117.195 55.6997 119.937 50.4431 122.684 45.1864C152.336 60.3626 173.327 100.609 159.809 140.968C143.742 188.929 90.3722 209.578 47.1395 189.161C3.74068 168.661 -11.7971 117.793 9.39598 77.8985C33.1285 33.2324 84.3793 25.9154 115.273 41.3808C112.651 46.6787 110.028 51.9767 107.271 57.5535C88.7675 50.3088 70.5812 50.5463 52.8831 59.6551C35.0967 68.8104 24.1652 83.4237 20.0159 102.726C13.9659 130.878 28.1483 161.453 57.8633 173.691C87.0797 185.722 118.623 174.393 135.095 149.963C152.85 123.634 148.229 81.5596 114.37 61.1113Z" fill="#00FEFF"/>
<path d="M98.3945 74.3602C95.8807 79.494 93.5159 84.4871 90.9455 89.371C90.6062 90.0166 89.0794 90.5633 88.3237 90.355C75.7647 86.8718 63.0104 94.5151 58.3734 105.517C54.2094 115.394 57.1653 128.608 65.4523 135.288C77.3584 144.879 92.9813 143.145 102.379 131.196C110.342 121.074 109.185 105.642 99.5409 96.7748C97.3921 94.8015 96.8728 93.5102 98.4716 90.8757C100.965 86.7624 102.934 82.3212 105.124 78.0205C120.762 86.2626 131.064 109.385 123.42 130.509C114.238 155.875 86.8431 166.19 64.3573 156.276C41.4962 146.196 31.3945 118.299 42.5706 95.7439C54.05 72.5587 80.2372 66.2691 98.3945 74.3602Z" fill="#001E42"/>
<path d="M147 8.51314C144.517 13.4943 142.148 18.2573 139.763 23.0151C139.531 23.4774 139.216 23.8981 138.989 24.3604C136.593 29.2117 136.573 29.3363 131.184 28.3235C128.995 27.9131 127.988 28.5728 127.008 30.479C114.211 55.4107 101.332 80.3009 88.4835 105.207C86.6303 108.796 84.8081 112.406 82.9705 116C82.6453 115.953 82.32 115.901 82 115.855C82.0568 115.112 81.9019 114.265 82.2065 113.642C84.8391 108.209 87.5492 102.812 90.2386 97.4051C95.4161 86.9753 100.594 76.5404 105.776 66.1054C112.296 52.9851 118.821 39.8648 125.407 26.6094C123.952 24.8902 122.449 23.228 121.097 21.4569C120.643 20.8647 120.137 19.7636 120.385 19.2546C123.518 12.8502 126.796 6.51341 130.115 0C131.142 1.11673 132.237 1.92701 132.835 3.01778C135.427 7.74961 139.742 8.40407 144.46 8.29499C145.204 8.27941 145.947 8.41445 147 8.51314Z" fill="#001E42"/>
<path d="M83.8187 104.153C81.7361 108.207 79.7704 112.033 77.7197 116.026C79.866 117.108 81.7786 118.078 83.909 119.15C86.1298 115.152 88.2177 111.387 90.3162 107.613C94.2529 110.117 95.2517 117.291 92.25 121.569C88.8499 126.415 82.3205 128.366 77.0822 125.989C71.4082 123.418 68.6933 117.448 70.6112 111.769C72.3644 106.586 77.9216 103.228 83.8187 104.153Z" fill="#00FEFF"/>
</svg>
